<svg version="1.1" id="logo-savoy" xmlns="http://www.w3.org/2000/svg" xmlns:xlink="http://www.w3.org/1999/xlink" x="0px" y="0px" width="595.28px" height="423.786px" viewBox="0 0 595.28 423.786" enable-background="new 0 0 595.28 423.786" xml:space="preserve">
  <g>
   <path fill-rule="evenodd" clip-rule="evenodd" fill="#0D0F0F" d="M363.612,62.023l34.093-7.182l4.013,19.293l-54.196,11.417
    l-11.591,16.953h25.567l9.146,13.542l-51.224,127.475l-9.146,6.212h-26.083l-9.147-6.212l-51.222-127.475l9.146-13.542h25.57
    l-11.596-16.953L192.75,74.135l4.015-19.293l34.089,7.182l-32.368-47.326l16.283-11.113l13.837,20.233L239.539,0l17.904,8.178
    l-15.877,34.587l40.857,59.74h29.623l40.859-59.74L337.026,8.178L354.929,0l10.932,23.817L379.7,3.584l16.281,11.113
    L363.612,62.023L363.612,62.023z M303.628,229.98l43.284-107.719h-99.354L290.84,229.98H303.628z"></path>
    <g>
     <path fill-rule="evenodd" clip-rule="evenodd" fill="#FFFFFF" d="M230.955,18.704c-0.06,0.33-0.132,0.658-0.216,0.982
      c-0.153,0.581-0.436,0.967-0.798,1.225L230.955,18.704L230.955,18.704z M227.033,21.516l-0.846,1.104
      c-0.173-0.535-0.336-1.069-0.528-1.599c-0.122-0.342-0.283-0.667-0.494-1.165c-0.924,0.493-1.669,0.885-2.473,1.313
      c0.377,1.351,0.711,2.555,0.945,3.39c1.389-0.142,2.728-0.284,4.528-0.472l-0.947-2.301L227.033,21.516L227.033,21.516z
      M214,77.524L214,77.524L214,77.524L214,77.524z M361.918,21.663c-1.225,1.446-2.836,0.988-4.651,0.872
      c0.755-0.731,1.394-1.348,2.119-2.049c0.751,0.367,1.63,0.8,2.521,1.219c0.009-0.013,0.012-0.031,0.012-0.038l0.141,4.077
      c-0.441,0.237-0.899,0.475-1.344,0.734c-0.375,0.219-0.734,0.462-1.773,1.124c2.077-0.136,2.177,2.235,3.909,1.363
      c0,0-0.074,0.062-0.074,0.066c0.141-1.013-0.069-2.328,0.485-2.982c1.477-1.719,1.388-3.301,0.317-5.06
      c0,0,0.03,0.081,0.017,0.064c-0.563,0.2-1.12,0.417-1.678,0.637v-0.023V21.663L361.918,21.663z M363.032,39.901L363.032,39.901
      L363.032,39.901L363.032,39.901z M220.381,33.364c-0.24-0.969-0.475-1.938-0.736-2.898c-0.014-0.058-0.287-0.104-0.4-0.058
      c-0.119,0.05-0.194,0.211-0.289,0.326c-1.254,0.427-2.505,0.855-3.439,1.175c0.363-1.476,0.363-1.476,3.46-1.13
      c0.01,0.013,0.004-0.006-0.006-0.021l0.026,0.041c-0.268-2.666-0.268-2.666,3.703-3.852c0.044,1.225,0.087,2.515,0.15,4.441
      l-2.484,2.036c-0.641,3.363-0.627,3.369,2.107,4.447l-0.015,0.008c-1.635,1.392-5.142,0.792-4.683,4.47
      c1.274-0.825,2.388-2.292,4.068-0.847c0.773-1.054,3.21-0.646,2.606-3.058c-0.703-0.16-1.406-0.321-2.107-0.484
      c1.006-1.185,2.01-2.373,3.177-3.748c-1.713-0.876-3.381-1.367-5.256-0.705l0,0h0.002l0.001-0.002l0.003-0.004l0.001-0.004
      l0.004-0.004l0.004-0.004v-0.001l0.002-0.004l0.006-0.006l0.006-0.006l0,0l0.002-0.007h0.002l0.004-0.004l0,0l0.006-0.008l0,0
      l0.006-0.006l0,0l0.005-0.007v-0.001l0.006-0.007l0,0l0.004-0.005l0,0l0.004-0.007l0.002-0.001l0.003-0.004h0.002l0.004-0.006
      v-0.002l0.006-0.004v-0.002l0.002-0.004l0.002-0.001l0.002-0.002l0.001-0.002l0.002-0.004l0.002-0.002l0.002-0.002l0.001-0.002
      l0,0l0.004-0.004l0,0l0,0v-0.004l0,0h0.004L220.381,33.364L220.381,33.364z M372.203,80.351l-0.808,0.171l-0.364-0.381
      c0.146-0.154,0.293-0.305,0.438-0.458L372.203,80.351L372.203,80.351z M366.788,81.494l-5.855,1.233l-0.977-2.018
      c2.009-1.283,2.964,0.667,4.329,1.163c0.801-0.525,1.604-1.051,2.495-1.635c0.148,0.544,0.334,0.874,0.251,0.969L366.788,81.494
      L366.788,81.494z M342.825,92.42l-0.907,1.327l-0.673-1.16C341.871,92.476,342.396,92.412,342.825,92.42L342.825,92.42z
      M341.646,102.505h2.519l-0.32,0.66c1.967,1.603,0.816,2.507-1.332,4.124c0.714-1.975,1.117-3.095,1.517-4.208
      c-0.965,0.116-1.934,0.235-3.241,0.39L341.646,102.505L341.646,102.505z M353.721,102.505h0.066l2.293,1.154
      C354.351,104,354.334,104.004,353.721,102.505L353.721,102.505z M362.999,104.728l0.269,0.396l-0.021,0.178
      c-0.845-0.317-1.689-0.635-2.539-0.955c0.036-0.074,0.065-0.149,0.097-0.225L362.999,104.728L362.999,104.728z M369.84,118.043
      l-0.602,1.501l-1.567-0.173C368.487,118.576,369.119,118.124,369.84,118.043L369.84,118.043z M245.803,170.74l-1.402-3.479
      l4.679,0.407c0.194,1.342,0.351,2.446,0.507,3.549c1.102-0.73,2.205-1.46,3.695-2.45c0.229,1.066,0.384,1.79,0.654,3.047
      c-1.754-0.279-3.043-0.484-4.341-0.668c-0.006,0.013-0.008,0.042-0.008,0.06v-0.042C248.65,168.583,247.314,170.33,245.803,170.74
      L245.803,170.74z M238.761,153.22l-0.41-1.022c0.441-0.167,0.884-0.349,1.328-0.565L238.761,153.22L238.761,153.22z
      M255.069,102.505h1.332c-0.237,0.612-0.556,1.208-0.857,1.822c0.008,0.008,0.078,0.07,0.086,0.077
      C255.457,103.769,255.254,103.14,255.069,102.505L255.069,102.505z M256.617,99.699l-3.276-4.794
      c0.157-0.13,0.32-0.252,0.495-0.346c-0.896-1.374-2.14-2.718,0-4.57c-0.268,1.666,1.497,2.541,0.846,4.104
      c-0.093,0.227-0.603,0.274-0.917,0.408l-0.002-0.002V94.5l0,0l0,0c0.66,1.88,2.035,1.332,3.095,0.87
      c-0.171,1.367-0.79,2.807-0.39,3.856C256.527,99.387,256.579,99.546,256.617,99.699L256.617,99.699z M231.035,82.201l-3.402-0.716
      c0.212-3.294,0.168-3.319-1.724-4.161c1.829-0.872,1.989-0.745,2.926,2.334c0.479-0.014,0.977-0.031,1.651-0.054
      c-0.193,0.847-0.4,1.541-0.449,2.246c-0.008,0.099,0.728,0.251,1.139,0.379l0.022,0.006c0.312-0.835,0.622-1.666,1.15-3.074
      c0.357,0.902,0.708,1.35,0.66,1.754c-0.117,1.072-0.637,1.765-1.889,1.249l-0.008-0.008L231.035,82.201L231.035,82.201z
      M217.641,79.378l-0.131-0.029c-0.974-2.372,1.159-2.633,1.959-3.468c0.777-0.811,2.14-1.182,3.156-0.097
      c0.59,0.631,0.625,1.868,1.949,1.591c0.018,0.303,0.144,0.66,0.028,0.899c-0.111,0.237-0.513,0.537-0.711,0.491
      c-0.592-0.145-1.145-0.458-1.722-0.677C220.132,77.325,219.317,77.505,217.641,79.378L217.641,79.378z M216.026,79.041
      l-2.915-0.617l0.901-0.922c0.542-0.891,0.295-1.813-0.551-2.085c-0.66-0.216-1.575,0.188-2.312,0.489
      c-0.25,0.098-0.497,0.829-0.369,1.076c0.202,0.389,0.711,0.841,1.106,0.859c0.718,0.029,1.446-0.241,2.167-0.385l-0.017,0.019
      l0.006-0.006l-0.008,0.01l-0.003,0.002l-0.001,0.004l-0.002,0.001l-0.001,0.002l-0.004,0.004v0.001l-0.004,0.004l-0.002,0.002
      l-0.004,0.003l-0.001,0.002v0.002l-0.002,0.003l-0.004,0.002v0.002h-0.001v0.003L214,77.524l0,0l0,0l0,0l0,0
      c0.713,0.418,1.427,0.839,2.324,1.363C216.225,78.945,216.123,78.997,216.026,79.041L216.026,79.041z M221.125,47.802
      l-0.061-0.091c0.068,0.043,0.146,0.081,0.233,0.114L221.125,47.802L221.125,47.802z M220.566,46.983l-1.148-1.676
      c0.309-0.379,0.317-0.945-0.303-1.92C222.802,43.438,220.42,45.61,220.566,46.983L220.566,46.983z M244.116,46.497l0.674,0.983
      l-2.757,0.827c-0.065-0.2-0.13-0.397-0.189-0.598C242.597,47.296,243.345,46.874,244.116,46.497L244.116,46.497z M323.192,86.206
      l1.244-1.821l1.374,0.284l-0.916-0.955l1.584-2.317c0.494,0.92,0.969,1.752,0.985,2.593c0.017,0.901-0.845,2.285-1.675,2.646
      C324.589,87.16,323.813,86.833,323.192,86.206L323.192,86.206z M328.495,78.45l1.41-2.062c0.272-0.097,0.478-0.34,0.577-0.841
      l4.726-6.912c0.074,0.26,0.148,0.503,0.231,0.742c0.734,2.107,0.828,3.813-1.385,5.375c-1.601,1.125-2.653,3.023-4.204,4.875
      L328.495,78.45L328.495,78.45z M349.624,35.63l-0.613-1.342c0.172,0.003,0.338-0.005,0.508-0.03
      c0.362-0.061,0.688-0.361,1.026-0.551c0.219,0.505,0.429,0.99,0.651,1.514L349.624,35.63L349.624,35.63z M347.563,31.135
      l-0.603-1.313l1.076,0.826L347.563,31.135L347.563,31.135z M343.576,22.45l-0.124-0.274l0.201-0.078L343.576,22.45L343.576,22.45z
      M308.349,218.224l0.046-0.103c0.095,0.078,0.202,0.146,0.321,0.202L308.349,218.224L308.349,218.224z M310.3,213.373l0.458-1.132
      l2.709-0.507c0.351,1.054,0.85,1.945,0.883,2.85c0.024,0.821-0.231,1.976-0.796,2.386c-0.417,0.303-1.934-0.109-2.256-0.631
      C310.795,215.509,310.585,214.506,310.3,213.373L310.3,213.373z M256.904,145.521l0.292,0.732
      c-0.278-0.008-0.614-0.035-1.02-0.064L256.904,145.521L256.904,145.521z M263.558,162.084l0.469,1.167l-1.472-0.351
      c0.222,0.948,0.445,1.895,0.748,3.177c-2.606-1.827-2.606-1.827-2.69-3.891c-0.677-0.518-1.354-1.031-2.39-1.816
      c0.887-0.503,1.495-0.848,2.831-1.604c-0.266,1.675-0.415,2.594-0.569,3.518l0.012-0.011l-0.021,0.019
      c0.726,0.259,1.454,0.519,2.184,0.781C262.973,162.587,263.268,162.266,263.558,162.084L263.558,162.084z M247.937,76.079
      c1.555-0.544,3.049-2.013,4.99-0.058c-1.175,0.322-2.198,0.604-3.289,0.903c-0.625,2.384-0.625,2.384,1.994,3.565
      c-0.409,0.695-0.773,1.722-1.474,2.403c-0.667,0.639-1.686,0.917-2.453,1.303c-1.624-2.384-1.152-4.695,0.433-6.967
      c0.18-0.258-0.074-0.816-0.127-1.235c-0.627-0.123-1.254-0.247-1.879-0.373C247.126,74.778,247.657,75.143,247.937,76.079
      l0.075-0.087L247.937,76.079L247.937,76.079z M252.83,84.915c0.119,0.569,0.237,1.136,0.356,1.705
      c-0.188,0.05-0.377,0.097-0.567,0.145c-0.138-0.565-0.278-1.132-0.417-1.698C252.411,85.015,252.622,84.966,252.83,84.915
      L252.83,84.915z M227.051,70.544c0.747,0.073,1.496,0.143,2.243,0.217c-0.024,0.289,0.032,0.536-0.066,0.637
      C228.176,72.495,227.573,71.757,227.051,70.544L227.051,70.544z M239.499,80.17c-0.061-0.516,0.017-1.12-0.235-1.514
      c-0.204-0.318-0.806-0.382-1.738-0.771c0.928-0.4,1.462-0.841,1.745-0.716C240.751,77.824,239.827,79.064,239.499,80.17
      L239.499,80.17z M222.606,66.415c2.653-0.827,2.285,1.189,2.534,2.559C224.342,68.166,223.544,67.361,222.606,66.415
      L222.606,66.415z M361.7,33.212c0.919,0.443,1.843,0.884,0.523,2.418c-0.198-1.049-0.33-1.781-0.471-2.511l0,0v-0.002
      l-0.083,0.083c0.149-0.45,0.298-0.905,0.678-2.056c-2.141,1.62-3.79,2.787-5.799,2.047c-0.792,0.996-1.459,1.831-2.215,2.78
      C357.274,36.004,360.062,36.113,361.7,33.212L361.7,33.212z M364.249,38.754c-0.137-0.761-1.04-1.608,0.696-2.722
      c-0.367,1.27-0.565,1.95-0.746,2.653l0.012,0.019l-1.191,1.22c-0.541,0.891-0.293,1.811,0.552,2.083
      c0.661,0.216,1.575-0.188,2.31-0.489c0.253-0.099,0.499-0.829,0.372-1.074c-0.202-0.39-0.715-0.843-1.109-0.86
      c-0.714-0.031-1.443,0.239-2.166,0.385l0.017-0.021l-0.008,0.004l0.008-0.008l0.005-0.001v-0.002l0.004-0.004v-0.001l0.005-0.002
      l0.003-0.003v-0.002l0.005-0.002l0.004-0.003v-0.005h0.005v-0.003v-0.002l0.003-0.001l0.005-0.002v-0.002v-0.002v-0.001l0,0l0,0
      l0,0c-0.709-0.419-1.428-0.837-2.322-1.361C362.001,37.764,363.118,38.517,364.249,38.754L364.249,38.754z M360.359,29.745
      c-0.734,0.287-1.465,0.571-2.198,0.856c-0.081-0.208-0.161-0.417-0.243-0.625c0.738-0.265,1.481-0.528,2.219-0.794
      C360.211,29.37,360.285,29.558,360.359,29.745L360.359,29.745z M355.832,18.714c0.115,0.907,0.239,1.813,0.37,2.827
      c-1.298,0.392-1.526-0.439-1.364-1.33c0.095-0.542,0.635-1.008,0.973-1.512c0,0,0.005,0.004,0.008,0.008l-0.008-0.008
      c-0.693,0.261-1.386,0.522-2.178,0.823c0.021,0.631,0.243,1.336,0.017,1.854c-0.384,0.891,0.042,2.599-2.177,1.949
      c-0.985-0.291-2.379,0.796-3.587,1.258c-0.097-0.186-0.183-0.374-0.273-0.559c0.677-0.598,1.357-1.196,2.025-1.786
      c-0.169-0.618-0.331-1.2-0.635-2.322c0.804,0.549,1.162,0.796,1.821,1.246c0.05-0.934,0.091-1.717,0.133-2.503l-0.078,0.091
      c0.52-0.521,1.038-1.043,1.634-1.646c0.461,0.346,1.01,0.759,1.719,1.291c0.508-0.501,0.974-0.965,1.694-1.679
      C355.885,17.56,355.856,18.137,355.832,18.714L355.832,18.714z M346.677,27.556c1.678-1.132,1.678-1.132,2.164,1.189
      C348.013,28.292,347.395,27.947,346.677,27.556L346.677,27.556z M354.425,51.01c-2.651,0.827-2.284-1.188-2.53-2.557
      C352.692,49.261,353.489,50.065,354.425,51.01L354.425,51.01z M365.571,28.02c-0.036-1.217-0.082-2.435-0.136-4.041
      c1.587,1.035,1.25,2.34,1.312,3.441c0.008,0.146-0.825,0.336-1.27,0.509C365.48,27.929,365.571,28.02,365.571,28.02L365.571,28.02
      z M355.815,24.904c-1.233,0.956-2.396-0.836-3.538,0.589c-0.747,0.932-3.222,0.635-1.983,3.091
      c0.313-1.627,1.477-1.741,2.61-1.584C354.342,27.194,355.418,27.026,355.815,24.904L355.815,24.904z M359.474,37.954
      c1.096,2.486-1.093,2.74-1.909,3.59c-0.775,0.813-2.141,1.184-3.156,0.097c-0.588-0.631-0.621-1.866-1.945-1.589
      c-0.021-0.306-0.149-0.662-0.033-0.902c0.11-0.235,0.516-0.536,0.713-0.49c0.59,0.144,1.142,0.46,1.721,0.676
      C356.936,40.113,357.741,39.915,359.474,37.954L359.474,37.954z M323.265,95.772c-0.081,0.802-0.164,1.604-0.284,2.755
      c-0.651-0.336-1.184-0.612-2.025-1.049c0.987-0.741,1.642-1.239,2.302-1.741l0,0c-0.644-0.118-1.286-0.231-2.26-0.403
      c2.153-2.625,3.716-0.066,5.394,0.167l0.005,0.005l-0.005-0.005v-0.003l0,0l-0.017-0.024v-0.002l-0.003-0.004l0,0v-0.007l0,0
      v-0.006l0,0l-0.009-0.004v-0.002v-0.004h-0.005v-0.005l-0.003-0.004v-0.004l0,0l-0.005-0.007v-0.001l-0.004-0.004v-0.002
      l-0.005-0.004l0,0v-0.006l0,0l-0.007-0.007l0,0v-0.004l-0.005-0.004v-0.004l-0.005-0.001l-0.003-0.008v-0.002V95.37l0,0l0,0
      c1.057,0.693,1.823,3.215,3.84,0.048c-3.398,0.796-2.463-4.867-6.577-3.464l2.709,3.42
      C325.286,95.506,324.276,95.639,323.265,95.772L323.265,95.772z M360.781,124.151c-0.599,0.223-1.197,0.445-1.796,0.67
      c-0.11-0.21-0.218-0.421-0.329-0.631c0.544-0.334,1.093-0.67,1.642-1.004C360.459,123.508,360.619,123.829,360.781,124.151
      L360.781,124.151z M329.892,80.409c0.549,0.336,1.098,0.676,1.642,1.014c-0.21,0.297-0.428,0.592-0.643,0.889
      c-0.503-0.425-1.007-0.852-1.51-1.277C329.555,80.823,329.724,80.617,329.892,80.409L329.892,80.409z M349.279,120.433
      c-0.985,0.173-1.968,0.351-2.953,0.525c-0.041-0.286-0.079-0.571-0.12-0.859c0.99-0.074,1.983-0.15,2.971-0.225
      C349.213,120.06,349.246,120.248,349.279,120.433L349.279,120.433z M350.727,131.784c-0.619,0.99-1.146,1.853-1.683,2.716
      C348.793,133.137,347.469,131.091,350.727,131.784L350.727,131.784z M337.203,89.271c1.114-0.035,2.231-0.067,3.584-0.109
      c0.355-1.765,0.685-3.406,1.134-5.641c-1.719,0.685-2.869,1.138-3.847,1.53c-0.136,1.718,2.145,3.511-0.816,4.223h-0.041
      c0.017,0,0.049,0.006,0.058,0.013c-0.325,1.268-0.673,2.527-1.147,4.239c1.279-0.128,2.017-0.2,3.102-0.309
      C338.412,91.625,337.81,90.446,337.203,89.271L337.203,89.271z M349.807,123.367c-0.219,1.052-0.429,2.104-0.68,3.324
      c-0.425-0.312-1.028-0.561-1.015-0.771c0.058-0.999,0.289-1.979,0.452-2.97C348.979,123.089,349.395,123.229,349.807,123.367
      L349.807,123.367z M351.064,112.767c1.728,1.136,1.678,1.981-0.701,5.711C350.664,116.027,350.862,114.427,351.064,112.767
      L351.064,112.767z M343.46,75.286c3.295-0.576,3.341,2.831,5.422,3.903c-0.196,0.235-0.403,0.466-0.604,0.703
      C346.669,78.357,345.063,76.824,343.46,75.286L343.46,75.286z M358.66,132.052c-0.028-1.683-0.058-3.363-0.086-5.05
      c2.936-0.352,0.886,3.101,2.552,3.272c-1.253-0.144-2.507-0.29-3.761-0.433C357.794,130.578,358.227,131.316,358.66,132.052
      L358.66,132.052z M335.056,102.583c-1.282-1.297-2.561-2.595-4.257-4.301c3.753,0.183,3.753,0.183,5.044,3.575
      C335.58,102.097,335.318,102.339,335.056,102.583L335.056,102.583z M340.263,106.097c-0.015,1.711-0.022,2.693-0.031,3.804
      c-1.395-0.033-2.529-0.06-3.826-0.092c-0.188-0.818-0.372-1.639-0.632-2.781C337.236,106.722,338.461,106.468,340.263,106.097
      L340.263,106.097z M354.537,79.226c-0.775,0.538-1.266,0.883-1.737,1.212c-0.325-0.47-0.491-0.602-0.478-0.711
      c0.19-1.689,0.632-4.231,2.074-4.14c2.63,0.165,2.329,3.107,3.373,6.012C356.24,80.475,355.427,79.881,354.537,79.226
      L354.537,79.226z M257.597,184.347c0.807-0.008,1.615-0.015,2.771-0.023c-0.264,0.683-0.48,1.244-0.821,2.128
      c-0.843-0.893-1.414-1.491-1.984-2.095l-0.001,0.002c-0.045,0.651-0.084,1.305-0.149,2.293c-2.847-1.852-0.48-3.689-0.433-5.382
      l0.004-0.006l-0.006,0.006l-0.002,0.004l0,0l-0.021,0.014h-0.003l-0.005,0.004l0,0l-0.003,0.002l0,0l-0.007,0.004l0,0
      l-0.004,0.006h-0.001l-0.004,0.002v0.004h-0.006l-0.002,0.001l-0.004,0.003l0,0l-0.007,0.004l-0.001,0.001l-0.002,0.002
      l-0.004,0.002l-0.004,0.002v0.001l-0.004,0.002l0,0l-0.006,0.006l0,0l-0.004,0.002l-0.004,0.004l-0.004,0.001l-0.002,0.002
      l-0.004,0.004h-0.004l-0.001,0.001l0,0l0,0c0.567-1.125,2.989-2.167-0.379-3.821c1.167,3.29-4.565,2.99-2.716,6.922l3.101-3.072
      C257.111,182.369,257.354,183.357,257.597,184.347L257.597,184.347z M238.162,136.943c-0.466,0.557-0.939,1.113-1.404,1.67
      c-0.171-0.128-0.338-0.258-0.507-0.383c0.433-0.594,0.862-1.188,1.292-1.78C237.749,136.616,237.955,136.778,238.162,136.943
      L238.162,136.943z M282.464,108.424c-0.421-0.948-0.817-1.835-1.348-3.043c1.014,0.162,1.905,0.033,2.322,0.418
      C284.756,107.02,283.919,107.773,282.464,108.424L282.464,108.424z M263.055,171.872c-1.146,1.418-2.291,2.838-3.8,4.706
      c-0.237-3.745-0.237-3.745,2.992-5.402C262.517,171.406,262.787,171.639,263.055,171.872L263.055,171.872z M257.187,163.311
      c-1.539,1.138-3.075,2.279-4.753,3.522C251.502,163.697,252.176,163.099,257.187,163.311L257.187,163.311z M248.988,146.772
      c2.133,2.571,5.798,0.159,8.508,2.986c-3.038-0.77-5.518-0.706-7.741,1.952c-0.754-2.066-1.208-3.295-1.658-4.526
      C248.395,147.049,248.689,146.911,248.988,146.772L248.988,146.772z M244.386,150.201c0.271-0.377,0.54-0.753,0.814-1.13
      c-1.56-0.037-2.154-0.653-1.251-2.122c0.375-0.611,0.81-1.184,1.216-1.775c-1.582,0.837-2.967,1.062-4.254-0.672
      c-0.637-0.862-1.734-1.395-2.656-2.029c-0.101-0.072-0.41,0.146-0.934,0.355c0.679,0.822,1.289,1.56,1.904,2.301
      c-0.342,1.41-2.174,2.577-0.675,4.43c0.842-0.53,1.625-1.023,2.86-1.796c0.062,2.534,1.101,3.328,3.108,2.342l-0.05,0.035
      l0.047-0.031c0.326,1.88,0.647,3.758,1.155,6.696c1.266-2.686,5.188-0.288,4.802-3.783
      C248.252,151.993,246.318,151.097,244.386,150.201L244.386,150.201z M276.856,113.709c1.344,0.313,2.672,0.624,4.053,0.945
      c-0.013,1.294-0.021,2.829-0.033,4.973c-2.136-0.769-3.987-1.437-5.876-2.12C275.759,115.947,276.353,114.742,276.856,113.709
      L276.856,113.709z M308.494,225.08c0.271-1.36,0.561-2.793,0.92-4.579c0.923-0.245,2.177-0.579,3.534-0.938
      c0.181,0.89,0.317,1.565,0.535,2.637c0.92-0.598,1.662-1.084,2.392-1.563C316.469,224.092,315.884,224.433,308.494,225.08
      L308.494,225.08z M326.973,213.814c0.631-0.406,1.263-0.814,1.897-1.219c0.16,0.208,0.32,0.417,0.486,0.629
      c-0.565,0.515-1.129,1.035-1.694,1.555C327.431,214.459,327.204,214.136,326.973,213.814L326.973,213.814z M260.453,198.233
      c-0.641,0.2-1.286,0.403-1.93,0.599c-0.063-0.254-0.13-0.509-0.198-0.765c0.654-0.148,1.301-0.301,1.951-0.452
      C260.335,197.822,260.393,198.025,260.453,198.233L260.453,198.233z M332.264,208.69c-0.943-0.165-1.893-0.326-2.838-0.487
      c0.013-0.134,0.029-0.266,0.046-0.397c0.911,0.093,1.823,0.189,2.734,0.283C332.226,208.289,332.242,208.488,332.264,208.69
      L332.264,208.69z M336.981,178.745c0.133-0.953,0.263-1.905,0.4-2.855c0.317,0.035,0.638,0.069,0.957,0.103
      c-0.066,0.978-0.132,1.957-0.198,2.934C337.752,178.866,337.368,178.804,336.981,178.745L336.981,178.745z M340.313,186.735
      c-0.127,1.028-0.21,1.701-0.334,2.711c-1.038-0.655-1.802-1.134-3.401-2.14C338.358,187.032,339.179,186.908,340.313,186.735
      L340.313,186.735z M262.766,176.216c-0.401,0.757-0.853,1.224-0.812,1.64c0.039,0.383,0.608,0.713,0.942,1.069
      c0.4-0.394,1.051-0.752,1.118-1.196C264.065,177.386,263.387,176.931,262.766,176.216L262.766,176.216z M265.715,176.45
      c0.377,0.986,0.756,1.967,1.136,2.949c-0.309,0.09-0.616,0.186-0.923,0.28c-0.231-1.027-0.462-2.056-0.695-3.083
      C265.394,176.544,265.552,176.499,265.715,176.45L265.715,176.45z M270.062,191.506c-0.718,0.089-1.436,0.171-2.153,0.256
      c-0.014-0.297-0.026-0.592-0.042-0.884c0.712-0.027,1.425-0.049,2.137-0.074C270.022,191.041,270.042,191.272,270.062,191.506
      L270.062,191.506z M323.623,209.428l-0.003,0.008l0,0v0.002c1.089,0.437,2.174,0.876,3.398,1.367
      c-0.697,0.936-1.225,1.635-1.84,2.457c-0.298-0.406-0.631-0.697-0.747-1.06c-0.301-0.913,1.188-2.338-0.804-2.773
      c1.383-1.495,3.163-2.945,0.491-5.009C323.945,206.175,323.78,207.802,323.623,209.428L323.623,209.428z M323.563,200.704
      c0.623,0.464,1.244,0.924,1.867,1.384c-0.35,0.21-0.816,0.678-1.031,0.582c-0.588-0.269-1.076-0.77-1.599-1.175
      C323.055,201.23,323.306,200.966,323.563,200.704L323.563,200.704z M325.893,191.654c1.46,0.879,2.223,1.338,3.386,2.039
      C327.555,194.187,326.398,194.605,325.893,191.654L325.893,191.654z M262.71,192.951c0.914,0.045,2.143-0.241,2.647,0.237
      c0.466,0.437,0.153,1.699,0.211,3.421c-1.5-1.342-2.275-2.036-3.05-2.729C262.583,193.572,262.647,193.263,262.71,192.951
      L262.71,192.951z M252.714,16.302c-0.654,0.364-1.305,0.728-1.959,1.088c-0.113-0.204-0.225-0.406-0.338-0.61
      c0.646-0.371,1.289-0.747,1.932-1.12C252.469,15.871,252.595,16.089,252.714,16.302L252.714,16.302z M234.518,23.292
      c0.604-0.183,1.208-0.365,1.816-0.546c0.04,0.274,0.149,0.775,0.104,0.79c-0.571,0.178-1.167,0.287-1.759,0.411
      C234.627,23.729,234.574,23.51,234.518,23.292L234.518,23.292z M208.387,11.961c0.192-0.31,0.37-0.72,0.45-0.703
      c0.39,0.084,0.75,0.284,1.117,0.445c-0.164,0.283-0.383,0.822-0.482,0.802C209.093,12.423,208.748,12.163,208.387,11.961
      L208.387,11.961z M242.042,51.132c0.804-0.029,1.612-0.056,2.813-0.095c-1.097,0.37-1.822,0.615-2.546,0.86
      C242.217,51.641,242.128,51.387,242.042,51.132L242.042,51.132z M234.149,17.293c1.05-0.036,2.099-0.07,3.146-0.107
      c0.021,0.132,0.042,0.262,0.064,0.392c-1.05,0.207-2.096,0.417-3.14,0.625C234.194,17.899,234.174,17.597,234.149,17.293
      L234.149,17.293z M242.157,23.007c-1.05,2.728-1.969,0.26-2.885-0.419c1,0.179,2.002,0.358,3.004,0.541l-0.054-0.054l0.058,0.054
      c0.789-1.308,1.58-2.613,2.825-4.677c-0.167,2.072-0.281,3.427-0.392,4.823C243.821,23.183,242.989,23.093,242.157,23.007
      L242.157,23.007z M212.713,22.668c0.749-2.736,2.251-1.187,4.557-0.833C215.113,22.232,213.985,22.438,212.713,22.668
      L212.713,22.668z M229.997,52.732c-2.809,1.301-3.411-0.429-4.458-1.242c0.134-0.278,0.268-0.556,0.404-0.837
      C227.072,51.232,228.2,51.81,229.997,52.732L229.997,52.732z M214.164,14.561c-1.323,0.813-2.146,1.316-3.26,1.996
      C211.479,14.671,211.479,14.671,214.164,14.561L214.164,14.561z M236.867,37.793c0.455-1.847,0.783-3.177,1.204-4.898
      c0.575,1.451,0.963,2.437,1.474,3.731C239.006,36.863,238.229,37.199,236.867,37.793L236.867,37.793z M236.85,43.6
      c0.979-1.406,1.957-2.813,2.951-4.239c0.454,0.079,1.01,0.175,2.056,0.358c-1.596,1.598-2.985,2.994-4.38,4.39
      C237.267,43.94,237.058,43.769,236.85,43.6L236.85,43.6z M242.669,16.259c-0.891,0.389-1.729,0.752-2.646,1.152
      c0.237,0.833,0.454,1.582,0.709,2.477C242.417,18.432,242.417,18.432,242.669,16.259L242.669,16.259z M204.172,20.64
      c2.854-0.117,1.557-4.885,5.464-4.508C207.95,18.18,207.418,20.77,204.172,20.64z"></path>
    </g>
    <path fill-rule="evenodd" clip-rule="evenodd" fill="#0D0F0F" d="M31.096,365.91c16.884,0,28.877-8.882,28.877-23.876
     c0-16.438-13.226-20.543-24.99-24.099c-12.102-3.657-13.992-6.111-13.992-9.664c0-3.109,2.777-5.888,8.328-5.888
     c7.11,0,10.774,3.443,13.438,8.995l14.994-8.774c-5.664-11.438-15.66-17.547-28.432-17.547c-13.436,0-26.098,8.667-26.098,23.657
     c0,14.882,11.33,20.454,22.876,23.656c11.654,3.232,16.106,5.109,16.106,9.885c0,2.998-2.111,6.331-10.551,6.331
     c-8.773,0-13.549-4.333-16.327-10.774L0,346.697C4.332,358.134,14.77,365.91,31.096,365.91L31.096,365.91z M121.413,364.355h19.436
     l-26.43-77.741H91.76l-26.432,77.741h19.436l3.886-12.215h28.876L121.413,364.355L121.413,364.355z M93.983,335.482l9.105-28.543
     l9.107,28.543H93.983L93.983,335.482z M162.839,364.355l-25.322-77.741h19.435l17.216,57.193l17.215-57.193h19.434l-25.321,77.741
     H162.839L162.839,364.355z M252.352,365.91c22.322,0,40.426-17.547,40.426-40.424c0-22.882-18.104-40.429-40.426-40.429
     c-22.323,0-40.424,17.547-40.424,40.429C211.928,348.363,230.029,365.91,252.352,365.91L252.352,365.91z M252.352,348.586
     c-12.66,0-22.657-9.219-22.657-23.1c0-13.886,9.997-23.103,22.657-23.103s22.656,9.217,22.656,23.103
     C275.008,339.367,265.012,348.586,252.352,348.586L252.352,348.586z M360.475,286.615l-26.095,55.586v22.155h-17.774v-22.155
     l-26.096-55.586h20.269l14.715,31.337l14.714-31.337H360.475L360.475,286.615z M363.254,365.91c5.774,0,10.55-4.775,10.55-10.55
     c0-5.776-4.775-10.552-10.55-10.552c-5.772,0-10.548,4.776-10.548,10.552C352.706,361.135,357.481,365.91,363.254,365.91
     L363.254,365.91z M417.562,365.91c22.321,0,40.426-17.547,40.426-40.424c0-22.882-18.104-40.429-40.426-40.429
     c-22.322,0-40.427,17.547-40.427,40.429C377.135,348.363,395.239,365.91,417.562,365.91L417.562,365.91z M417.562,348.586
     c-12.66,0-22.656-9.219-22.656-23.1c0-13.886,9.996-23.103,22.656-23.103c12.659,0,22.657,9.217,22.657,23.103
     C440.219,339.367,430.221,348.586,417.562,348.586L417.562,348.586z M512.406,286.615v42.199l-29.984-42.199h-13.329v77.741h17.771
     v-42.203l29.985,42.203h13.328v-77.741H512.406L512.406,286.615z M563.374,347.254v-13.771h27.761V316.6h-27.761v-12.883h30.54
     v-17.102H545.6v77.741h48.868v-17.102H563.374z"></path>
     <path fill-rule="evenodd" clip-rule="evenodd" fill="#FFFFFF" d="M21.069,364.1l-0.791,0.501c-0.626-0.165-1.239-0.345-1.841-0.536
      c0.265-0.561,0.46-1.06-0.482-1.452c-0.229-0.091-0.689,0.379-1.269,0.835l-0.619-0.243l-3.773-5.658
      c1.083,0.024,1.718,0.076,2.351,0.051c1.748-0.074,3.047,0.239,3.718,2.251C18.844,361.302,20.029,362.522,21.069,364.1
      L21.069,364.1z M555.183,363.11l-1.608,1.243h-1.241c-0.09-0.956,1.139-1.955-0.392-2.427c-0.276-0.083-0.796,0.635-1.463,1.205
      c-1.436-1.763-2.925-3.59-4.648-5.714c1.076-0.076,1.716-0.084,2.342-0.171c1.732-0.239,3.057-0.047,3.915,1.891
      C552.705,360.537,553.999,361.64,555.183,363.11L555.183,363.11z M563.369,341.728v-5.276c-0.334-0.575-0.842-1.097-1.259-1.637
      c-0.061-0.081-0.345,0.013-0.786,0.043c0.313,0.771,0.593,1.471,0.874,2.167c-0.59,0.969-2.235,1.404-1.556,3.14
      c0.751-0.191,1.451-0.373,2.558-0.657C562.883,340.601,562.94,341.343,563.369,341.728L563.369,341.728z M578.413,333.482h1.735
      l-1.318-0.518c0.792-1.749,0.792-1.749-1.296-2.509c0.714,1.119,1.15,1.804,1.588,2.489L578.413,333.482L578.413,333.482z
      M569.88,364.353h1.126l2.599-1.709c-0.144-0.237-0.289-0.476-0.437-0.713C570.696,362.341,570.409,362.393,569.88,364.353
      L569.88,364.353z M594.281,347.254h-0.68l0.218,0.592c0.178-0.05,0.359-0.104,0.532-0.153L594.281,347.254L594.281,347.254z
      M577.654,347.254h-0.449l-0.825,1.06C577.448,348.104,577.625,348.068,577.654,347.254L577.654,347.254z M564.243,347.254h-0.012
      l-0.005,0.015L564.243,347.254L564.243,347.254z M585.885,331.96c0.969,0.167,1.637,0.283,2.698,0.464
      C586.82,333.06,586.82,333.06,585.885,331.96L585.885,331.96z M585.923,329.148c0.602,0.27,1.209,0.534,1.811,0.804
      c-0.058,0.171-0.121,0.342-0.179,0.516c-0.651-0.194-1.303-0.383-1.95-0.578C585.712,329.643,585.815,329.396,585.923,329.148
      L585.923,329.148z M563.353,330.668c-0.483,0.303-0.966,0.606-1.446,0.909c-0.097-0.136-0.188-0.272-0.286-0.408
      c0.466-0.338,0.929-0.679,1.39-1.019C563.126,330.323,563.241,330.497,563.353,330.668L563.353,330.668z M555.789,363.201
      c0.343-0.37,0.689-0.738,1.032-1.105c0.193,0.208,0.392,0.421,0.585,0.631c-0.408,0.321-0.809,0.642-1.217,0.961
      C556.058,363.525,555.925,363.364,555.789,363.201L555.789,363.201z M574.091,354.838c-0.384-0.547-0.768-1.094-1.353-1.924
      c0.783-0.163,1.315-0.276,2.491-0.521c-0.594,1.185-0.924,1.835-1.258,2.489l0.012-0.007l-0.021,0.011
      c0.479,0.367,0.957,0.734,1.44,1.104c1.534-1.265,2.053-0.24,2.96,1.655c-1.406-0.852-2.201-1.332-2.998-1.813
      c-0.059,0.761-0.119,1.519-0.198,2.551C573.662,356.396,573.662,356.396,574.091,354.838L574.091,354.838z M589.494,354.469
      c-0.017,0.785-0.033,1.567-0.05,2.351c-0.227-0.015-0.45-0.029-0.677-0.044c0.095-0.771,0.186-1.544,0.281-2.315
      C589.196,354.462,589.345,354.466,589.494,354.469L589.494,354.469z M563.716,358.951c0.993-0.285,1.992-0.564,3.339-0.951
      c-0.081,0.85-0.139,1.429-0.237,2.432c-1.242-0.627-2.157-1.087-3.077-1.534c-0.008,0.008-0.016,0.028-0.021,0.041l0.009-0.029
      c-0.095-2.383-1.821-0.907-3.118-1.276c-0.148-0.813-0.32-1.763-0.581-3.189c1.646,0.688,2.854,1.193,4.157,1.738
      C564.004,357.229,563.864,358.09,563.716,358.951L563.716,358.951z M591.828,354.514c0.775,0.327,1.551,0.655,2.444,1.035
      c-0.301,0.279-0.585,0.705-0.745,0.66c-0.756-0.197-1.477-0.525-2.207-0.806C591.489,355.11,591.659,354.811,591.828,354.514
      L591.828,354.514z M583.885,351.92c1.139-1.153,1.777-0.986,4.276,1.416C586.323,352.728,585.126,352.332,583.885,351.92
      L583.885,351.92z M553.941,351.998c0.066-2.618,2.689-2.13,3.832-3.564c0.148,0.189,0.297,0.381,0.444,0.573
      C556.791,350.004,555.369,351.002,553.941,351.998L553.941,351.998z M577.101,359.187c1.313,0.276,2.063,0.435,2.916,0.612
      c-0.238,1.062-0.433,1.928-0.659,2.922c-0.656,0.018-1.316,0.032-2.232,0.056C577.114,361.603,577.114,360.627,577.101,359.187
      L577.101,359.187z M571.262,354.862c-3.683-1.351-4.329-1.065-4.379,1.495C568.434,355.828,569.847,355.347,571.262,354.862
      L571.262,354.862z M558.667,344.102c0.298,0.674,0.483,1.105,0.665,1.518c-0.408,0.177-0.536,0.286-0.623,0.259
      c-1.267-0.408-3.146-1.135-2.854-2.23c0.532-1.998,2.742-1.312,5.13-1.664C559.889,342.986,559.311,343.514,558.667,344.102
      L558.667,344.102z M489.481,296.549l-0.16-0.223l-0.174,0.398L489.481,296.549L489.481,296.549z M530.177,287.52v-0.905h-0.372
      l-0.573,0.493C529.578,287.229,529.891,287.365,530.177,287.52L530.177,287.52z M528.571,286.615h-2.599
      c0.629,0.993,0.904,2.189,2.496,1.379L528.571,286.615L528.571,286.615z M546.155,286.615H545.6v1.208
      C546.234,287.603,546.351,287.358,546.155,286.615L546.155,286.615z M545.6,312.359v0.302l0.586-0.221
      C545.945,312.533,545.761,312.487,545.6,312.359L545.6,312.359z M552.688,312.908c-0.845-1.173-0.527-1.994,1.456-3.05
      c-0.75,1.436-1.158,2.2-1.547,2.984c0.013,0.006,0.038,0.029,0.061,0.043l-0.039-0.029c-0.257,0.575-0.508,1.155-0.838,1.911
      c-1.019-1.2-1.86-2.194-2.701-3.187c-0.136-0.89-0.273-1.778-0.441-2.9c1.352,1.097,1.539,2.002,0.28,2.941
      C550.178,312.05,551.436,312.479,552.688,312.908L552.688,312.908z M549.818,292.99c0.47,0.866,0.795,1.46,1.312,2.404
      C549.537,294.409,549.537,294.409,549.818,292.99L549.818,292.99z M558.342,315.558c-0.503-0.132-1.007-0.256-1.501-0.419
      c-0.017-0.006,0.096-0.404,0.148-0.618c0.503,0.145,1.011,0.288,1.518,0.43C558.454,315.154,558.396,315.354,558.342,315.558
      L558.342,315.558z M552.045,291.276c0.166,0.637,0.329,1.277,0.494,1.916c-0.168,0.062-0.342,0.12-0.516,0.182
      c-0.251-0.629-0.506-1.258-0.762-1.89C551.524,291.417,551.786,291.345,552.045,291.276L552.045,291.276z M524.56,297.957
      c0.193-0.637,0.384-1.276,0.671-2.251c0.612,0.509,1.037,0.86,1.959,1.626c-1.303,0.269-2.017,0.417-2.733,0.557l0.008,0.008
      l-0.017-0.011c0.009,0.604,0.021,1.208,0.03,1.815c1.942,0.414,1.459,1.458,0.54,3.351c-0.207-1.633-0.325-2.557-0.441-3.475
      c-0.635,0.422-1.263,0.847-2.121,1.429C523.07,298.588,523.07,298.588,524.56,297.957L524.56,297.957z M548.432,306.176
      c0.05-0.963-0.334-2.757,1.515-1.39C549.43,305.259,548.931,305.718,548.432,306.176L548.432,306.176z M514.897,292.382
      c0.842,0.602,1.678,1.21,2.817,2.026c-0.72,0.464-1.205,0.78-2.05,1.324c-0.285-1.364-0.491-2.366-0.715-3.366
      c-0.008,0-0.033,0.007-0.044,0.013l0.027-0.013c1.811-1.555-0.416-1.992-0.936-3.237c0.544-0.621,1.184-1.349,2.141-2.437
      c0.483,1.715,0.837,2.977,1.217,4.336C516.427,291.541,515.66,291.961,514.897,292.382L514.897,292.382z M557.662,309.277
      c-0.277,0.084-0.554,0.179-0.833,0.254c-0.212,0.055-0.43,0.092-0.783,0.163c0.188,0.606,0.366,1.175,0.544,1.744
      c-0.152,0.058-0.307,0.118-0.463,0.178c-0.321-0.654-0.644-1.305-1.085-2.192c0.847-0.251,1.581-0.471,2.314-0.689
      C557.459,308.916,557.563,309.098,557.662,309.277L557.662,309.277z M556.647,304.549c0.936-0.194,1.876-0.387,2.816-0.579
      c0.059,0.2,0.124,0.404,0.181,0.606c-0.902,0.309-1.811,0.621-2.718,0.928C556.832,305.188,556.741,304.867,556.647,304.549
      L556.647,304.549z M569.979,299.085c0.582-0.571,1.122-1.105,1.856-1.829c0.165,0.788,0.507,1.404,0.337,1.816
      C571.646,300.378,570.862,299.974,569.979,299.085L569.979,299.085z M557.249,300.316c-1.01-0.998-1.637-1.617-2.296-2.268
      c0.251-0.324,0.563-0.864,0.659-0.826C556.755,297.642,558.383,297.811,557.249,300.316L557.249,300.316z M551.731,300.654
      c-2.092,0.796-3.394,1.291-4.87,1.851C547.554,300.465,548.193,300.194,551.731,300.654L551.731,300.654z M518.143,302.428
      c-1.357-0.448-2.715-0.893-4.5-1.483c2.682-1.208,2.682-1.208,4.789,0.697C518.336,301.902,518.242,302.166,518.143,302.428
      L518.143,302.428z M523.025,303.02c-1.122,0.903-1.884,1.514-2.8,2.249c0.59,0.704,1.01,1.211,1.432,1.716
      c0.919-0.444,1.719-0.827,2.701-1.297C523.965,304.906,523.622,304.217,523.025,303.02L523.025,303.02z M551.913,304.904
      c3.195-2.329,3.195-2.329,3.126-3.726C553.34,301.776,551.232,301.828,551.913,304.904L551.913,304.904z M522.791,295.757
      c-1.233-3.725-1.856-4.058-3.893-2.503C520.271,294.139,521.528,294.949,522.791,295.757L522.791,295.757z M564.561,296.439
      c0.144,1.07,0.284,2.13,0.43,3.231c-0.949,0.351-2.079,0.767-3.654,1.351c-0.028-1.777-0.05-3.318-0.075-4.889
      C562.618,296.259,563.666,296.357,564.561,296.439L564.561,296.439z M446.399,337.606c-1.043-0.257-2.078-0.511-3.06-0.755
      c0.132-1.647,2.698-0.667,1.972-2.521c-0.107-0.268-0.99-0.229-1.853-0.398c0.491-2.221,0.998-4.524,1.592-7.192
      c0.73,0.796,1.131,1.293,1.589,1.731c1.261,1.206,1.938,2.362,0.948,4.241C446.874,334.066,446.816,335.763,446.399,337.606
      L446.399,337.606z M447.167,353.223c0.28-0.299,0.552-0.596,0.824-0.903l-0.433-1.113c0.656-0.452,1.315-0.903,1.972-1.355
      l-3.109-1.421c1.744-1.793,2.944,0.046,4.285,0.441c-0.253,0.359-0.508,0.712-0.772,1.061c-0.132-0.045-0.265-0.079-0.387-0.093
      l0,0h0.004v0.002l0,0l0.003,0.001v0.002l0.005,0.002l0.005,0.002l0.004,0.004l0,0l0.003,0.002l0,0l0.005,0.004l0,0l0.005,0.002l0,0
      l0.007,0.004l0,0v0.001l0,0l0.008,0.004l0,0l0.005,0.002l0,0l0.004,0.004l0,0l0.005,0.002l0,0l0.003,0.002l0,0l0.005,0.004l0,0
      l0.004,0.004l0,0l0.021,0.01l0,0v0.002l0.003,0.001h-0.003c-1.25,0.435-3.254-0.792-3.824,1.805
      c0.742-0.225,1.233-0.375,1.725-0.524v0.002c-0.279,0.583-0.565,1.165-0.982,2.031L447.167,353.223L447.167,353.223z
      M455.398,339.959c0.388-1.021,0.729-2.066,1.03-3.126l-0.227-0.815c-0.957,1.089-1.597,1.819-2.141,2.44
      C454.321,339.081,455.006,339.5,455.398,339.959L455.398,339.959z M457.667,330.723l0.089-0.797
      c-1.046-0.574-2.053-1.223-3.418-0.196L457.667,330.723L457.667,330.723z M438.326,335.266c-0.277,0.659-0.582,1.299-0.916,1.916
      l0.234,0.392l-0.676,0.397c-0.416,0.699-0.871,1.367-1.349,2.004l1.172,0.08v0.002v0.001l0,0l-0.005,0.003v0.001h-0.005v0.006
      h-0.003v0.005l-0.004,0.003v0.005l-0.01,0.003v0.005l-0.003,0.003v0.005l-0.009,0.003v0.005l-0.003,0.005l-0.005,0.002
      l-0.004,0.004v0.007l-0.005,0.001l-0.003,0.004l-0.005,0.004v0.002l-0.004,0.004v0.001l-0.005,0.002v0.002v0.002l0,0l0,0
      c0.999,0.054,2.037-0.023,2.985,0.225c0.458,0.119,0.747,0.86,1.255,1.495c-0.797,0.093-1.274,0.147-1.754,0.2
      c0.063,0.436-0.028,1.099,0.22,1.265c1.389,0.944,0.462,1.551-0.294,2.285c-1.472-1.231-0.552-2.391,0.079-3.555
      c-2.458,1.097-2.627,0.973-2.425-1.964c1.46-1.143,2.149-2.617,1.852-4.716L438.326,335.266L438.326,335.266z M431.167,344.338
      c-0.546,0.395-1.109,0.761-1.691,1.106l-0.265,0.608C430.75,345.244,431.274,344.969,431.167,344.338L431.167,344.338z
      M469.093,326.715v1.92l0.783,0.596c-0.304,0.122-0.564,0.251-0.783,0.388v2.514l0.875,0.234c-0.409-1.152-0.119-1.759,1.205-1.502
      c0.552,0.105,1.092,0.266,1.636,0.402c-1.051-0.926-1.595-1.88-0.684-3.301c0.452-0.707,0.54-1.656,0.75-2.507
      c0.025-0.097-0.223-0.26-0.519-0.586c-0.414,0.721-0.784,1.375-1.156,2.029C470.533,326.983,469.785,326.662,469.093,326.715
      L469.093,326.715z M503.569,345.668l1.282,1.802l-0.228-1.706L503.569,345.668L503.569,345.668z M476.9,323.857
      c-0.541-0.19-1.073-0.379-1.613-0.57c0.046-0.156,0.096-0.315,0.146-0.476c0.552,0.153,1.104,0.304,1.658,0.456
      C477.027,323.465,476.967,323.659,476.9,323.857L476.9,323.857z M483.823,357.621c-0.337,0.367-0.676,0.738-1.01,1.105
      c-0.152-0.106-0.305-0.211-0.453-0.319c0.26-0.427,0.522-0.856,0.783-1.283C483.37,357.29,483.597,357.454,483.823,357.621
      L483.823,357.621z M478.826,343.603c-0.706,0.08-1.407,0.158-2.112,0.239c0-0.064-0.004-0.127-0.007-0.189
      c0.663-0.138,1.322-0.274,1.987-0.413C478.735,343.361,478.78,343.481,478.826,343.603L478.826,343.603z M446.705,338.136
      c0.503,0.04,1.002,0.083,1.505,0.122c-0.042,0.283-0.086,0.567-0.133,0.85c-0.502-0.118-1.001-0.235-1.504-0.355
      C446.618,338.549,446.659,338.342,446.705,338.136L446.705,338.136z M471.159,345.025c0.668-0.004,1.336-0.006,2.086-0.013
      C472.149,345.873,472.149,345.873,471.159,345.025L471.159,345.025z M475.115,339.61c0.819,0.412,1.422,0.713,2.268,1.138
      C475.638,341.386,475.638,341.386,475.115,339.61L475.115,339.61z M474.483,359.129c-0.626,0.472-1.25,0.946-1.873,1.418
      c-0.132-0.184-0.259-0.371-0.387-0.556c0.663-0.404,1.327-0.808,1.987-1.217C474.302,358.893,474.393,359.011,474.483,359.129
      L474.483,359.129z M484.711,337.413c0.205,0.678,0.412,1.352,0.622,2.029c-0.169,0.068-0.334,0.138-0.495,0.21
      c-0.452-0.697-0.898-1.392-1.578-2.447c0.831,0.214,1.244,0.321,1.648,0.427c0.269-0.771,0.532-1.539,0.965-2.794
      C486.574,336.946,486.574,336.946,484.711,337.413L484.711,337.413z M475.894,360.984c0.227,0.813,0.449,1.621,0.714,2.561
      c-0.408-0.063-0.921-0.022-0.986-0.177c-0.313-0.713-0.503-1.48-0.737-2.229C475.218,361.089,475.56,361.036,475.894,360.984
      L475.894,360.984z M510.043,348.411c0.581-0.569,1.122-1.104,1.856-1.829c0.165,0.789,0.502,1.404,0.339,1.816
      C511.705,349.704,510.926,349.301,510.043,348.411L510.043,348.411z M439.212,342.064v-0.002l-0.005,0.008L439.212,342.064
      L439.212,342.064z M472.994,353.149c1.613,0.178,1.876,0.783,1.547,4.231C473.877,355.562,473.443,354.378,472.994,353.149
      L472.994,353.149z M485.164,363.888c-0.623-1.165-1.241-2.328-1.865-3.491c1.923-1.292,1.725,1.843,2.949,1.371
      c-0.927,0.347-1.852,0.693-2.778,1.038C484.035,363.167,484.599,363.528,485.164,363.888L485.164,363.888z M472.698,334.505
      c-1.296,2.272,1.484,4.293,0.164,7.059c-0.276-2.438-1.006-4.235-3.571-5.129c1.303-1.127,2.083-1.795,2.858-2.465
      C472.331,334.146,472.517,334.325,472.698,334.505L472.698,334.505z M441.889,343.522c0.883-0.244,1.757-0.485,3.487-0.961
      c-1.368-0.476-1.917-0.668-2.685-0.936c0.367-0.644,0.739-1.293,1.222-2.142c0.92,0.735,1.946,1.216,2.376,2.016
      c0.334,0.623,0.222,1.896-0.227,2.441C444.697,345.606,443.312,343.99,441.889,343.522L441.889,343.522z M440.782,351.072
      c-1.805-0.567-3.265-1.515-5.101-0.07c-0.004-1.786-0.009-3.037-0.012-4.287c0.248,0.006,0.49,0.017,0.738,0.025
      c-0.033,0.785-0.065,1.573-0.107,2.624c1.629-0.282,2.787-1.032,3.847-2.523C440.33,348.054,440.512,349.264,440.782,351.072
      L440.782,351.072z M399.074,296.503c-0.907,0.573-1.811,1.142-2.663,1.683c-1.098-1.235,1.385-2.404-0.455-3.169
      c-0.268-0.107-0.85,0.559-1.57,1.062l-1.732-2.602c1.035-0.802,2.111-1.552,3.226-2.251c0.189,0.28,0.351,0.621,0.486,1.029
      C396.848,293.708,398.034,294.928,399.074,296.503L399.074,296.503z M443.715,294.48c-0.395-0.333-0.795-0.664-1.208-0.979
      C442.267,294.419,442.968,294.479,443.715,294.48L443.715,294.48z M383,304.263c-0.243,0.394-0.472,0.793-0.698,1.196
      c0.751,1.081,1.477,2.107,3.316,2.031c0.165-0.749,0.325-1.484,0.486-2.221c-0.177-0.065-0.354-0.134-0.531-0.2
      c-0.313,0.448-0.619,0.891-0.953,1.372C383.762,305.954,383.771,304.617,383,304.263L383,304.263z M399.165,311.458l0.408-0.556
      l-0.833-0.864c-0.177,0.171-0.351,0.342-0.527,0.511L399.165,311.458L399.165,311.458z M401.549,308.669
      c0.231-0.227,0.466-0.445,0.706-0.662l-0.85-0.6C401.491,307.853,401.535,308.269,401.549,308.669L401.549,308.669z
      M409.178,303.85l0.755-0.262l0.14-0.862l-3.179,1.258c-0.119-3.4,3.912-1.423,4.086-4.147c1.918,2.225-0.144,2.233-0.902,2.867
      l0,0h0.003l0,0h0.005l0,0h0.004l0.005-0.002h0.003l0.005-0.005l0,0h0.009l0,0l0,0l0,0h0.008v-0.001h0.003l0,0l0.006-0.004l0,0
      h0.008l0,0h0.003l0,0h0.005l0,0l0.009-0.002l0,0l0.003-0.003l0,0h0.005l0,0h0.004l0,0l0.024-0.005l0,0l0,0l0.009-0.001
      l-0.004,0.001C409.991,303.114,409.569,303.473,409.178,303.85L409.178,303.85z M399.668,296.65
      c0.375-0.334,0.755-0.669,1.13-1.004c0.174,0.229,0.348,0.457,0.52,0.685c-0.434,0.28-0.866,0.563-1.3,0.843
      C399.904,296.999,399.788,296.826,399.668,296.65L399.668,296.65z M390.546,304.453c-0.152,0.651-0.301,1.299-0.449,1.948
      c-0.26-0.045-0.524-0.091-0.784-0.136c0.141-0.646,0.281-1.293,0.422-1.936C390.002,304.372,390.274,304.412,390.546,304.453
      L390.546,304.453z M418.675,290.061c-0.326-0.582-0.655-1.162-1.159-2.046c0.792-0.091,1.338-0.15,2.529-0.283
      c-0.706,1.124-1.093,1.741-1.493,2.357l0.012-0.002l-0.017,0.006c0.441,0.411,0.883,0.823,1.328,1.235
      c1.646-1.113,2.066-0.045,2.792,1.93c-1.324-0.982-2.07-1.534-2.813-2.089c-0.132,0.75-0.259,1.501-0.441,2.52
      C418.103,291.571,418.103,291.571,418.675,290.061L418.675,290.061z M434.048,291.149c-0.089,0.779-0.18,1.556-0.271,2.336
      c-0.227-0.037-0.45-0.072-0.673-0.107c0.17-0.761,0.333-1.52,0.499-2.276C433.752,291.116,433.9,291.134,434.048,291.149
      L434.048,291.149z M388.847,297.931c0.063,1.05,0.929,2.664-1.443,2.294C387.964,299.331,388.405,298.629,388.847,297.931
      L388.847,297.931z M407.961,293.169c1.015-0.187,2.033-0.377,3.415-0.628c-0.165,0.839-0.275,1.408-0.471,2.395
      c-1.176-0.74-2.04-1.286-2.92-1.818c-0.008,0.008-0.017,0.032-0.02,0.044l0.012-0.031c0.132-2.381-1.728-1.076-2.985-1.565
      c-0.069-0.823-0.152-1.786-0.276-3.231c1.575,0.841,2.729,1.458,3.971,2.124C408.41,291.483,408.188,292.326,407.961,293.169
      L407.961,293.169z M436.365,291.417c0.739,0.398,1.481,0.798,2.34,1.259c-0.331,0.25-0.656,0.646-0.809,0.59
      c-0.734-0.271-1.419-0.665-2.119-1.015C435.971,291.976,436.169,291.695,436.365,291.417L436.365,291.417z M397.313,304.78
      c0.358,0.256,0.771,0.786,1.064,0.721c1.64-0.348,1.438,0.738,1.446,1.792c-1.912,0.211-2.11-1.258-2.516-2.518
      c-0.906,2.534-1.112,2.567-3.096,0.386c0.177-1.73-0.326-3.178-1.815-4.372c0.301-0.017,0.582-0.241,0.842-0.77
      c0.198-0.397-0.1-1.039-0.202-1.836c-0.788,0.667-1.365,1.163-1.988,1.688c0.297,0.344,0.582,0.625,0.857,0.781l-2.663,1.278
      c1.666,0.381,2.597,0.598,3.744,0.866c-0.358,1.497-0.668,2.781-1.048,4.379c0.816-0.744,1.531-1.397,2.248-2.049v0.004l0,0v0.002
      v0.002v0.001v0.004v0.002l0.004,0.004v0.004v0.006v0.002v0.006l0.005,0.004v0.007v0.004v0.006v0.006l0.003,0.006v0.002v0.006v0.006
      v0.005v0.003v0.007v0.004l0,0l0.005,0.006l0,0v0.004v0.002l0,0l0,0c0.734-0.683,1.394-1.484,2.231-1.999
      c0.403-0.245,1.138,0.056,1.949,0.131C397.896,304.02,397.603,304.399,397.313,304.78L397.313,304.78z M397.309,304.776v-0.004
      l0.005,0.008L397.309,304.776L397.309,304.776z M391.973,311.645c2.017,0.581,2.017,0.581,1.288,3.107
      C392.789,313.609,392.443,312.774,391.973,311.645L391.973,311.645z M428.703,288.083c1.242-1.043,1.865-0.813,4.125,1.815
      C431.055,289.117,429.903,288.611,428.703,288.083L428.703,288.083z M417.454,297.784c-1.258,0.668-2.523,1.336-4.186,2.216
      c0.985-2.771,0.985-2.771,3.819-2.969C417.212,297.284,417.33,297.532,417.454,297.784L417.454,297.784z M421.265,294.672
      c1.278,0.398,2.012,0.627,2.842,0.887c-0.334,1.033-0.615,1.876-0.933,2.845c-0.656-0.043-1.311-0.093-2.227-0.154
      C421.05,297.081,421.138,296.11,421.265,294.672L421.265,294.672z M415.862,289.813c-3.542-1.693-4.21-1.47-4.503,1.077
      C412.951,290.508,414.406,290.161,415.862,289.813L415.862,289.813z M400.217,303.854c0.433-0.802,0.871-1.604,1.719-3.182
      c-1.289,0.657-1.805,0.922-2.527,1.289c-0.214-0.713-0.425-1.429-0.704-2.367c1.167-0.153,2.227-0.559,3.101-0.315
      c0.68,0.192,1.521,1.153,1.604,1.854C403.665,303.271,401.54,303.151,400.217,303.854L400.217,303.854z M32.316,285.173
      c-0.581-0.045-1.168-0.076-1.763-0.095l2.771,1.219C32.945,285.857,32.613,285.485,32.316,285.173L32.316,285.173z M19.308,286.74
      l-0.28,0.099c-0.42,1.148-0.312,1.326,0.883,3.25c0.177-1.017,0.307-1.767,0.439-2.52c0.745,0.555,1.491,1.107,2.813,2.088
      c-0.726-1.973-1.146-3.043-2.792-1.93L19.308,286.74L19.308,286.74z M11.452,291.087l-0.198,0.156l0.149,0.093L11.452,291.087
      L11.452,291.087z M3.503,304.943c-0.122,0.807-0.206,1.633-0.247,2.483c0.627-0.427,1.383-0.73,2.138-1.145L3.503,304.943
      L3.503,304.943z M10.182,301.485c0.583,0.243,1.167,0.489,2.004,0.837c-0.4,0.411-0.731,0.749-1.246,1.281
      c-0.334-0.906-0.559-1.509-0.786-2.12l0,0c-0.23,0.458-0.461,0.916-0.814,1.604c-1.479-2.206,0.792-2.804,1.346-4.006l0.001-0.002
      l-0.005,0.002h-0.002l0,0l-0.02,0.004l0,0l-0.005,0.001l0,0H10.65l0,0l-0.004,0.002h-0.001l-0.002,0.002l0,0h-0.006l0,0
      l-0.006,0.002l0,0h-0.006l0,0l-0.004,0.001l0,0h-0.006v0.002h-0.006l0,0l-0.004,0.002l0,0h-0.006l0,0l-0.004,0.002H10.59
      l-0.007,0.001H10.58l0,0l-0.001,0.002h-0.002h-0.002l0,0c0.756-0.636,2.818-0.644,0.901-2.868
      c-0.173,2.726-4.205,0.748-4.084,4.148l3.18-1.26C10.444,299.912,10.312,300.7,10.182,301.485L10.182,301.485z M34.543,287.55
      c-0.09,0.778-0.184,1.556-0.274,2.334c-0.223-0.035-0.445-0.072-0.67-0.105c0.167-0.763,0.336-1.521,0.501-2.278
      C34.247,287.518,34.396,287.535,34.543,287.55L34.543,287.55z M43.379,289.029c0.604,0.685,1.13,1.279,1.654,1.875
      C43.957,290.782,42.124,291.316,43.379,289.029L43.379,289.029z M36.861,287.816c0.741,0.398,1.479,0.798,2.338,1.26
      c-0.33,0.251-0.653,0.646-0.81,0.589c-0.732-0.268-1.417-0.664-2.118-1.014C36.467,288.375,36.665,288.095,36.861,287.816
      L36.861,287.816z M17.949,294.184c-1.259,0.668-2.521,1.338-4.184,2.218c0.983-2.771,0.983-2.771,3.819-2.971
      C17.706,293.683,17.828,293.933,17.949,294.184L17.949,294.184z M21.758,291.075c1.278,0.398,2.014,0.625,2.845,0.884
      c-0.335,1.033-0.616,1.879-0.932,2.846c-0.655-0.044-1.313-0.091-2.229-0.154C21.545,293.48,21.632,292.508,21.758,291.075
      L21.758,291.075z M354.681,286.615h-1.199c0.705,0.993,0.936,2.237,0.998,3.693C355.233,288.983,354.966,287.77,354.681,286.615
      L354.681,286.615z M338.339,290.588l-0.813,1.73l1.744-0.951L338.339,290.588L338.339,290.588z M335.122,297.445l-0.121,0.25
      l4.108,1.699c0.115-0.254,0.231-0.509,0.347-0.761C337.592,296.677,337.497,296.584,335.122,297.445L335.122,297.445z
      M312.584,290.465l-0.646-1.392l-1.328,2.502C311.765,291.075,312.362,290.813,312.584,290.465L312.584,290.465z M358.953,289.856
      l0.029-0.064l-2.119-1.267C357.25,290.306,357.255,290.334,358.953,289.856L358.953,289.856z M386.021,299.968l-0.127,0.16
      l0.136-0.039L386.021,299.968L386.021,299.968z M352.521,293.638c0.668,0.043,1.331,0.088,2.083,0.14
      C353.448,294.555,353.448,294.555,352.521,293.638L352.521,293.638z M345.839,295.409c0.236-0.623,0.475-1.246,0.833-2.196
      c0.574,0.553,0.971,0.932,1.832,1.767c-1.316,0.173-2.038,0.268-2.768,0.354l0.009,0.007l-0.017-0.013
      c-0.033,0.606-0.066,1.208-0.103,1.815c1.904,0.556,1.347,1.561,0.292,3.379c-0.087-1.646-0.137-2.571-0.187-3.497
      c-0.659,0.377-1.322,0.755-2.219,1.268C344.31,295.931,344.31,295.931,345.839,295.409L345.839,295.409z M343.935,300.347
      c-1.188,0.815-1.992,1.367-2.957,2.033c0.532,0.746,0.915,1.283,1.303,1.817c0.945-0.371,1.773-0.697,2.783-1.095
      C344.734,302.295,344.442,301.582,343.935,300.347L343.935,300.347z M344.23,293.084c-1.195-0.898-2.392-1.802-3.698-2.784
      C342.68,288.903,343.278,289.278,344.23,293.084L344.23,293.084z M260.637,350.885c-1.042,0.252-2.081,0.5-3.065,0.736
      c-0.639-1.524,2.09-1.832,0.594-3.146c-0.216-0.188-0.986,0.251-1.826,0.497l-0.182-0.672c1.196-0.183,2.359-0.454,3.477-0.804
      C259.88,348.551,260.317,349.652,260.637,350.885L260.637,350.885z M256.24,365.727l0.687-0.07l-0.97-2.066
      c-0.222,0.106-0.443,0.208-0.664,0.313L256.24,365.727L256.24,365.727z M257.529,365.59c1.333-0.167,2.644-0.396,3.932-0.684
      l-2.134-2.948C259.104,363.55,258.547,364.665,257.529,365.59L257.529,365.59z M266.542,363.411l0.541-0.202l0.809-0.791v0.004
      l0.012,0.46l0.359-0.149l-0.345-0.303c0.375-0.701,0.753-1.406,1.125-2.107l-3.412,0.167c0.981-3.26,4.158-0.087,5.2-2.61
      c1.099,2.724-0.854,2.065-1.777,2.424l0,0h0.002h0.002h0.001h0.004h0.002h0.005h0.003h0.004l0,0h0.004v0.002h0.006l0,0h0.007l0,0
      h0.004h0.002l0.004,0.004l0,0h0.007l0,0h0.006l0,0h0.006l0,0h0.001h0.003h0.004h0.001l0.004,0.001l0,0h0.004h0.002l0.019,0.002l0,0
      l0.002,0.001h0.006h-0.003C268.291,361.248,266.082,361.121,266.542,363.411L266.542,363.411z M276.253,358.244
      c0.429-0.312,0.858-0.633,1.278-0.961l-0.012-0.088c-2.747-0.724-2.747-0.724-4.573,1.581L276.253,358.244L276.253,358.244z
      M280.732,354.479l0.515-0.515l0.779-1.425l0.244,0.352l0.276-0.307c-0.165,0.021-0.346,0.056-0.549,0.112
      c-0.289-0.535-0.573-1.064-0.857-1.599l0.017,0.002l-0.013-0.002c0.577-0.458,1.143-0.916,2.173-1.75
      c-1.171-0.26-1.708-0.377-2.487-0.549c0.194,1,0.318,1.654,0.441,2.308C280.287,352.299,280.241,352.353,280.732,354.479
      L280.732,354.479z M287.215,346.207c0.197-0.34,0.396-0.687,0.589-1.033l-1.765,0.926
      C286.666,346.246,286.983,346.32,287.215,346.207L287.215,346.207z M249.217,365.793l0.357,0.022
      c1.173-1.697,1.047-1.78-0.541-2.889L249.217,365.793L249.217,365.793z M273.705,333.706l-0.236,0.672l1.134-0.371
      C274.294,333.919,273.998,333.814,273.705,333.706L273.705,333.706z M319.363,351.219c-0.506,0.116-1.014,0.237-1.525,0.318
      c-0.021,0.003-0.103-0.403-0.156-0.617c0.515-0.106,1.035-0.208,1.551-0.316C319.274,350.809,319.318,351.013,319.363,351.219
      L319.363,351.219z M281.408,324.659c-0.565,0.078-1.125,0.159-1.691,0.237c-0.033-0.165-0.062-0.326-0.09-0.491
      c0.561-0.117,1.122-0.239,1.678-0.356C281.342,324.253,281.375,324.455,281.408,324.659L281.408,324.659z M261.152,351.215
      c0.466-0.193,0.93-0.39,1.394-0.584c0.09,0.273,0.181,0.545,0.272,0.817c-0.499,0.125-1,0.251-1.499,0.378
      C261.263,351.621,261.207,351.419,261.152,351.215L261.152,351.215z M250.001,355.661c-0.351,0.567-0.704,1.131-1.054,1.698
      c-0.231-0.127-0.464-0.255-0.695-0.383c0.34-0.564,0.679-1.13,1.019-1.697C249.514,355.407,249.758,355.535,250.001,355.661
      L250.001,355.661z M287.062,339.472c0.92-0.012,1.592-0.021,2.541-0.033C288.345,340.809,288.345,340.809,287.062,339.472
      L287.062,339.472z M250.496,348.937c-0.281,1.014,0.022,2.824-2.108,1.707C249.213,349.978,249.854,349.456,250.496,348.937
      L250.496,348.937z M270.125,350.594c1.022,0.151,2.047,0.304,3.435,0.51c-0.427,0.74-0.713,1.243-1.217,2.115
      c-0.874-1.079-1.519-1.876-2.177-2.662c-0.008,0.007-0.025,0.023-0.035,0.031l0.02-0.023c0.894-2.212-1.289-1.577-2.318-2.445
      c0.199-0.8,0.429-1.741,0.778-3.146c1.218,1.303,2.115,2.262,3.077,3.289C271.099,349.145,270.612,349.871,270.125,350.594
      L270.125,350.594z M322.131,331.241c0.253-0.773,0.487-1.497,0.809-2.478c0.504,0.626,1.092,1.017,1.134,1.46
      C324.202,331.623,323.322,331.626,322.131,331.241L322.131,331.241z M256.302,358.153c0.398-0.266,0.796-0.532,1.466-0.983
      c-0.744-0.333-1.344-0.854-1.804-0.75c-0.957,0.216-1.84,0.76-2.755,1.171l0,0l0,0v-0.002l0.001-0.001v-0.002v-0.004v-0.001
      l0.003-0.007v-0.001l0.001-0.004v-0.007v-0.004v-0.006v-0.004l0.004-0.006v-0.006l0.002-0.007v-0.001v-0.007v-0.005l0.004-0.004
      v-0.006v-0.004v-0.004v-0.004v-0.002l0.001-0.004v-0.001l0,0v-0.004l0,0l0.002-0.002c-0.887,0.386-1.773,0.771-2.788,1.213
      c0.876-1.388,1.581-2.505,2.402-3.806c-0.998-0.624-1.806-1.125-3.26-2.029c1.581-0.189,2.41-0.289,3.136-0.375
      c1.231,1.729,1.295,3.355,0.524,5.038c1.174,2.703,1.377,2.736,3.058,0.63c-0.024,1.323-0.312,2.777,1.565,3.198
      c0.332-1,0.876-1.964-0.793-2.165C256.778,359.143,256.558,358.51,256.302,358.153L256.302,358.153z M256.302,358.145
      L256.302,358.145v0.008V358.145L256.302,358.145z M243.749,355.632c0.47-0.349,0.908-0.672,1.345-0.994
      c0.146,0.122,0.294,0.243,0.443,0.362c-0.392,0.644-0.783,1.287-1.181,1.942c-2.322-0.686-2.204-2.562-2.877-4.191
      C244.079,352.51,242.829,354.588,243.749,355.632L243.749,355.632z M278.687,349.97c-1.489-0.14-2.977-0.283-4.61-0.437
      C275.177,347.217,275.882,347.223,278.687,349.97L278.687,349.97z M282.571,336.049c-0.107,2.613,3.291,3.128,3.39,6.19
      c-1.365-2.037-2.841-3.299-5.53-2.915c0.644-1.596,1.023-2.549,1.407-3.504C282.08,335.899,282.323,335.974,282.571,336.049
      L282.571,336.049z M278.096,335.635c0.355-0.076,0.71-0.152,1.065-0.232c-0.891-0.836-0.912-1.503,0.383-1.891
      c0.536-0.157,1.093-0.262,1.637-0.392c-1.356-0.34-2.285-0.936-2.127-2.618c0.083-0.837-0.276-1.718-0.483-2.571
      c-0.021-0.097-0.313-0.13-0.73-0.283c-0.033,0.833-0.066,1.583-0.095,2.336c-0.936,0.641-2.614,0.36-2.709,2.223
      c0.763,0.132,1.481,0.255,2.603,0.454c-1.287,1.509-1.098,2.515,0.585,2.99l-0.05-0.004l0.045,0.004
      c-0.796,1.266-1.587,2.527-2.833,4.505c2.145-0.901,3.171,2.546,4.775,0.309C279.408,338.704,278.752,337.168,278.096,335.635
      L278.096,335.635z M259.35,358.211c0.67-0.619,1.338-1.237,2.653-2.456c-1.435,0.203-2.008,0.288-2.812,0.403
      c0.031-0.744,0.06-1.489,0.101-2.466c1.153,0.233,2.287,0.188,3.033,0.701c0.583,0.397,1.072,1.579,0.926,2.272
      C262.799,358.774,260.829,357.974,259.35,358.211L259.35,358.211z M316.102,331.383c0.615,0.883,1.229,1.759,1.865,2.67
      c-0.686,0.75-1.494,1.638-2.624,2.879c-0.841-1.567-1.571-2.924-2.313-4.31C314.292,332.113,315.266,331.722,316.102,331.383
      L316.102,331.383z M200.89,317.09l1.072-3.291l-0.503-0.367c-0.584,1.317-0.979,2.208-1.454,3.281L200.89,317.09L200.89,317.09z
      M202.65,311.682l0.396-1.211c-0.218-0.692-0.703-0.958-1.822-0.653c-0.289-0.535-0.574-1.066-0.86-1.599h0.019h-0.01
      c0.575-0.458,1.14-0.915,2.173-1.752c-1.175-0.258-1.709-0.375-2.488-0.546c0.191,1,0.317,1.655,0.441,2.307
      c-1.033,1.247-1.033,1.247-0.473,3.676c0.498-0.907,0.862-1.573,1.228-2.243L202.65,311.682L202.65,311.682z M205.397,303.253
      l0.039-0.124l-0.171,0.091L205.397,303.253L205.397,303.253z M207.272,297.503l0.298-0.926l-1.282,0.017
      C206.735,297.061,207.028,297.365,207.272,297.503L207.272,297.503z M198.209,286.615h-1.219l-0.019,0.488
      c-0.937,0.642-2.615,0.361-2.709,2.225c0.764,0.132,1.48,0.258,2.602,0.451c-1.289,1.509-1.099,2.518,0.583,2.992l-0.045-0.004
      l0.044,0.004c-0.794,1.266-1.59,2.528-2.832,4.505c2.142-0.903,3.171,2.544,4.774,0.309c-0.753-1.76-1.409-3.294-2.069-4.829
      c0.357-0.077,0.711-0.153,1.069-0.233c-0.891-0.836-0.914-1.505,0.381-1.891c0.537-0.159,1.091-0.262,1.639-0.392
      c-1.359-0.34-2.286-0.938-2.127-2.618C198.314,287.291,198.277,286.953,198.209,286.615L198.209,286.615z M190.396,289.889
      l-0.955,3.169c0.24,0.247,0.488,0.483,0.713,0.687c0.066,0.057,0.229,0.01,0.673,0.021c0.005-0.45,0.01-0.924,0.018-1.66
      c0.827-0.271,1.574-0.515,2.984-0.977C192.504,290.75,191.368,290.089,190.396,289.889L190.396,289.889z M180.709,322.063
      l-0.168,0.567l0.521-0.08L180.709,322.063L180.709,322.063z M164.672,312.27l-0.087-0.293l-0.266-0.218
      c-0.437,0.326-0.875,0.647-1.342,0.993c-0.921-1.041,0.328-3.119-2.272-2.876c0.672,1.627,0.555,3.503,2.876,4.192L164.672,312.27
      L164.672,312.27z M242.481,286.244l-0.472,0.117l-0.652,2.003c1.192,0.383,2.071,0.381,1.942-1.02
      C243.267,286.992,242.89,286.674,242.481,286.244L242.481,286.244z M235.441,288.67c-1.012,0.455-2,0.953-2.963,1.487l2.091,3.897
      c1.129-1.241,1.939-2.128,2.623-2.879L235.441,288.67L235.441,288.67z M213.946,312.641l-0.002,0.001h0.002V312.641
      L213.946,312.641z M236.926,308.114l0.108-0.099l-0.126,0.025L236.926,308.114L236.926,308.114z M232.351,308.586
      c-1.291-0.654-1.388-1.532-0.111-3.38c-0.008,1.621-0.015,2.49-0.002,3.359c0.015,0.004,0.048,0.011,0.077,0.015l-0.052-0.008
      c0.04,0.629,0.081,1.258,0.134,2.084c-1.456-0.602-2.658-1.097-3.862-1.592c-0.528-0.728-1.058-1.456-1.726-2.373
      c1.705,0.352,2.289,1.068,1.604,2.48C229.724,308.977,231.037,308.782,232.351,308.586L232.351,308.586z M187.143,319.552
      c0.474,0.418,0.947,0.839,1.627,1.439c-0.514,0.26-0.934,0.475-1.592,0.811c-0.024-0.963-0.043-1.608-0.059-2.258h-0.003
      c-0.364,0.357-0.734,0.713-1.287,1.256c-0.688-2.565,1.654-2.398,2.565-3.359h0.002h-0.004l-0.004-0.001l0,0l-0.019-0.002h-0.002
      h-0.004l0,0l-0.003-0.001h-0.002h-0.002h-0.003h-0.002l0,0h-0.006v-0.002h-0.006l0,0h-0.006l0,0l-0.004-0.002h-0.002h-0.004l0,0
      h-0.006l0,0h-0.007v-0.002h-0.001l0,0h-0.007h-0.001l-0.004-0.001h-0.004h-0.004h-0.002h-0.002h-0.002l0,0
      c0.924-0.357,2.876,0.301,1.778-2.423c-1.04,2.523-4.219-0.648-5.2,2.608l3.413-0.165
      C187.896,318.147,187.519,318.851,187.143,319.552L187.143,319.552z M222.301,308.589c-0.13,0.484-0.261,0.964-0.392,1.447
      c-0.184-0.025-0.367-0.05-0.55-0.076c0.037-0.501,0.074-1,0.107-1.5C221.744,308.504,222.023,308.545,222.301,308.589
      L222.301,308.589z M214.696,314.222c-0.338,0.705-0.676,1.413-1.012,2.12c-0.2-0.104-0.4-0.212-0.6-0.316
      c0.402-0.666,0.807-1.333,1.208-1.996C214.424,314.094,214.56,314.158,214.696,314.222L214.696,314.222z M225.476,304.56
      c-0.4-0.875-1.563-2.293,0.705-1.926C225.942,303.288,225.709,303.925,225.476,304.56L225.476,304.56z M222.582,318.472
      c0.351,0.841,0.658,1.573,0.963,2.305C222.563,320.317,220.657,320.23,222.582,318.472L222.582,318.472z M189.351,307.716
      c1.025,0.151,2.048,0.304,3.436,0.51c-0.425,0.74-0.714,1.243-1.216,2.118c-0.875-1.081-1.52-1.879-2.178-2.664
      c-0.008,0.006-0.025,0.021-0.035,0.03l0.021-0.022c0.896-2.213-1.288-1.576-2.317-2.448c0.198-0.798,0.431-1.74,0.777-3.146
      c1.219,1.305,2.116,2.262,3.077,3.293C190.325,306.267,189.838,306.993,189.351,307.716L189.351,307.716z M216.804,315.22
      c0.571,0.616,1.142,1.232,1.806,1.948c-0.392,0.13-0.825,0.4-0.957,0.295c-0.606-0.491-1.125-1.084-1.678-1.643
      C216.251,315.622,216.527,315.42,216.804,315.22L216.804,315.22z M235.101,303.075c-0.208,0.204-0.41,0.412-0.624,0.605
      c-0.164,0.15-0.343,0.281-0.621,0.508c0.443,0.451,0.861,0.876,1.282,1.301c-0.109,0.12-0.218,0.244-0.327,0.367
      c-0.588-0.431-1.174-0.861-1.97-1.449c0.633-0.611,1.184-1.141,1.738-1.674C234.753,302.846,234.926,302.962,235.101,303.075
      L235.101,303.075z M232.027,299.341c0.742-0.602,1.486-1.204,2.229-1.809c0.148,0.153,0.297,0.303,0.447,0.454
      c-0.664,0.693-1.329,1.384-1.992,2.077C232.485,299.821,232.256,299.584,232.027,299.341L232.027,299.341z M230.615,295.303
      c-1.357-0.42-2.196-0.68-3.083-0.957c0.077-0.404,0.106-1.026,0.207-1.039C228.948,293.157,230.47,292.559,230.615,295.303
      L230.615,295.303z M226.369,313.54c-1.086-0.749-2.17-1.498-3.257-2.246c1.111-2.029,2.38,0.847,3.248-0.136
      c-0.664,0.734-1.326,1.464-1.99,2.199C225.035,313.417,225.701,313.478,226.369,313.54L226.369,313.54z M225.87,298.141
      c-1.493,1.67-2.421,2.708-3.475,3.883C222.07,299.894,222.513,299.36,225.87,298.141L225.87,298.141z M196.848,315.147
      c-1.408,0.227-2.818,0.452-4.676,0.75c1.827-2.305,1.827-2.305,4.576-1.582C196.781,314.593,196.815,314.87,196.848,315.147
      L196.848,315.147z M227.981,301.832c-2.014-2.421-0.167-3.435,1.063-4.747C229.751,298.298,229.751,298.298,227.981,301.832
      L227.981,301.832z M197.915,307.089c-1.493-0.141-2.982-0.283-4.613-0.437C194.401,304.339,195.11,304.345,197.915,307.089
      L197.915,307.089z M201.795,293.169c-0.103,2.613,3.293,3.131,3.392,6.191c-1.365-2.036-2.841-3.297-5.53-2.914
      c0.642-1.596,1.025-2.549,1.406-3.501C201.307,293.021,201.551,293.096,201.795,293.169L201.795,293.169z M74.737,364.353
      c0.466-0.738,1.596-1.163,0.513-2.113c-0.217-0.188-0.985,0.252-1.829,0.497c-0.583-2.198-1.19-4.474-1.891-7.117
      c1.013,0.373,1.601,0.626,2.208,0.806c1.674,0.491,2.805,1.208,2.79,3.33c-0.01,1.45,0.642,2.901,1.114,4.598H74.737
      L74.737,364.353z M125.406,364.353h1.054c-0.214-0.498-0.822-0.816-1.793-1.018L125.406,364.353L125.406,364.353z M129.269,364.353
      h0.818l0.011-2.501C129.303,363.001,129.04,363.776,129.269,364.353L129.269,364.353z M65.542,364.353h1.677
      c0.227-0.439,0.222-1.144,0.36-1.651L65.542,364.353L65.542,364.353z M85.453,362.194l0.883-2.775l-0.64-0.681
      c-0.347,1.407-0.58,2.346-0.777,3.146C85.073,362.018,85.258,362.117,85.453,362.194L85.453,362.194z M93.591,352.14h2.762
      l-1.175-2.74c0.357-0.074,0.712-0.153,1.069-0.233c-0.891-0.835-0.913-1.503,0.381-1.889c0.537-0.159,1.093-0.264,1.639-0.394
      c-1.36-0.339-2.286-0.937-2.127-2.617c0.079-0.84-0.278-1.72-0.483-2.574c-0.021-0.097-0.317-0.127-0.731-0.282
      c-0.035,0.833-0.064,1.583-0.095,2.336c-0.937,0.642-2.614,0.361-2.709,2.223c0.765,0.134,1.48,0.258,2.602,0.454
      c-1.289,1.509-1.1,2.518,0.586,2.992l-0.048-0.006l0.043,0.006L93.591,352.14L93.591,352.14z M97.898,352.14l1.022-2.554
      c0.244,0.078,0.489,0.152,0.732,0.228c-0.04,0.992,0.429,1.683,1.026,2.326H97.898L97.898,352.14z M118.505,348.858
      c0.814,0.553,1.38,0.931,2.27,1.531C118.907,350.246,118.907,350.246,118.505,348.858L118.505,348.858z M119.697,346.31
      c0.439,0.493,0.88,0.983,1.319,1.476c-0.125,0.131-0.25,0.264-0.375,0.397c-0.513-0.443-1.026-0.884-1.542-1.328
      C119.297,346.677,119.498,346.491,119.697,346.31L119.697,346.31z M98.495,338.425c-0.565,0.079-1.128,0.159-1.693,0.237
      c-0.031-0.165-0.062-0.327-0.091-0.491c0.56-0.118,1.12-0.239,1.68-0.357C98.428,338.018,98.461,338.221,98.495,338.425
      L98.495,338.425z M123.333,361.205c-0.398-0.876-1.562-2.295,0.707-1.926C123.8,359.931,123.567,360.568,123.333,361.205
      L123.333,361.205z M111.659,346.877c0.495,0.505,0.99,1.012,1.483,1.515c-0.113,0.138-0.229,0.276-0.342,0.414
      c-0.72-0.41-1.437-0.822-2.526-1.447c0.842-0.192,1.254-0.287,1.664-0.379c-0.117-0.806-0.237-1.61-0.429-2.923
      C113.099,345.606,113.099,345.606,111.659,346.877L111.659,346.877z M132.958,359.718c-0.207,0.205-0.408,0.413-0.623,0.607
      c-0.164,0.15-0.343,0.28-0.621,0.507c0.445,0.453,0.864,0.878,1.282,1.301c-0.109,0.119-0.218,0.245-0.327,0.367
      c-0.587-0.431-1.175-0.86-1.971-1.448c0.635-0.61,1.185-1.143,1.738-1.676C132.611,359.492,132.784,359.605,132.958,359.718
      L132.958,359.718z M129.885,355.986c0.742-0.603,1.487-1.205,2.229-1.81c0.148,0.152,0.297,0.302,0.447,0.455
      c-0.664,0.691-1.328,1.384-1.992,2.075C130.343,356.466,130.114,356.228,129.885,355.986L129.885,355.986z M81.151,354.009
      c1.138-2.361,3.326-0.837,4.957-1.677c0.058,0.236,0.114,0.469,0.171,0.706C84.572,353.361,82.86,353.685,81.151,354.009
      L81.151,354.009z M128.475,351.947c-1.356-0.418-2.2-0.68-3.085-0.955c0.075-0.407,0.106-1.029,0.208-1.042
      C126.807,349.8,128.328,349.205,128.475,351.947L128.475,351.947z M123.726,354.784c-1.49,1.67-2.418,2.707-3.472,3.882
      C119.931,356.537,120.371,356.004,123.726,354.784L123.726,354.784z M125.842,358.475c-2.017-2.418-0.169-3.435,1.062-4.745
      C127.609,354.94,127.609,354.94,125.842,358.475L125.842,358.475z M88.703,348.749c-0.007,0.738-0.011,1.21-0.017,1.66
      c-0.445-0.008-0.607,0.037-0.673-0.021c-0.985-0.893-2.402-2.33-1.688-3.206c1.305-1.604,3.042-0.07,5.363,0.589
      C90.279,348.233,89.532,348.479,88.703,348.749L88.703,348.749z M133.187,345.149c0.617,0.882,1.23,1.759,1.864,2.67
      c-0.683,0.75-1.493,1.636-2.623,2.878c-0.841-1.567-1.57-2.923-2.312-4.31C131.375,345.878,132.351,345.487,133.187,345.149
      L133.187,345.149z M96.598,286.674l-0.118-0.06h0.15L96.598,286.674L96.598,286.674z M114.992,288.303l-0.045-0.136l-0.174,0.052
      L114.992,288.303L114.992,288.303z M88.074,297.452l-0.298,0.872l0.211,0.13L88.074,297.452L88.074,297.452z M94.543,300.168
      c0.084,0.626,0.167,1.256,0.289,2.151c-0.559-0.135-1.017-0.25-1.734-0.43c0.611-0.739,1.023-1.24,1.433-1.742l-0.001-0.001
      c-0.512,0.029-1.021,0.058-1.794,0.105c1.159-2.391,2.816-0.73,4.138-0.86v0.004l-0.004-0.004v-0.002l0,0l-0.013-0.017
      l-0.001-0.001l-0.002-0.001l0,0l-0.004-0.004l0,0l-0.004-0.004l0,0l-0.004-0.002l0,0l-0.004-0.006l0,0l-0.004-0.004l0,0
      l-0.004-0.006l0,0v-0.002l0,0l-0.006-0.004l0,0l-0.002-0.004l0,0l-0.004-0.004l0,0l-0.004-0.002v-0.001l-0.001-0.002l-0.004-0.004
      l-0.002-0.001l-0.001-0.002l-0.002-0.004h-0.002h-0.002v-0.004h-0.001c0.93,0.334,1.979,2.113,2.932-0.667
      c-2.439,1.228-2.765-3.253-5.644-1.435l2.693,2.109C96.032,299.601,95.288,299.883,94.543,300.168L94.543,300.168z M96.771,287.262
      c0.481,0.157,0.957,0.313,1.437,0.47c-0.107,0.264-0.218,0.532-0.33,0.796c-0.459-0.233-0.92-0.463-1.382-0.697
      C96.587,287.641,96.68,287.452,96.771,287.262L96.771,287.262z M112.051,300.349c0.334-0.575,0.668-1.153,1.179-2.031
      c0.477,0.637,0.804,1.076,1.522,2.042c-1.328-0.045-2.056-0.07-2.79-0.102l0.011,0.011l-0.017-0.013
      c-0.131,0.588-0.265,1.175-0.395,1.769c1.788,0.858,1.079,1.759-0.258,3.384c0.18-1.639,0.281-2.559,0.379-3.482
      c-0.71,0.266-1.425,0.532-2.394,0.893C110.458,300.617,110.458,300.617,112.051,300.349L112.051,300.349z M118.862,314.172
      c-0.717,0.316-1.433,0.629-2.151,0.942c-0.082-0.21-0.167-0.422-0.247-0.631c0.738-0.241,1.48-0.479,2.219-0.72
      C118.745,313.9,118.804,314.037,118.862,314.172L118.862,314.172z M122.044,322.548c-0.285,0.868-0.534,1.619-0.782,2.375
      C120.823,323.932,119.437,322.616,122.044,322.548L122.044,322.548z M103.96,292.667c0.677,0.785,1.351,1.569,2.264,2.633
      c-0.806,0.278-1.354,0.47-2.303,0.803c0.043-1.389,0.079-2.414,0.095-3.439c-0.011-0.002-0.033,0-0.045,0l0.029-0.002
      c2.126-1.088,0.06-2.035-0.153-3.367c0.676-0.479,1.468-1.033,2.65-1.87c0.067,1.784,0.119,3.093,0.171,4.501
      C105.645,292.207,104.802,292.438,103.96,292.667L103.96,292.667z M119.802,316.309c0.029,0.839,0.058,1.683,0.093,2.656
      c-0.384-0.159-0.889-0.239-0.917-0.404c-0.136-0.765-0.142-1.556-0.193-2.338C119.122,316.251,119.464,316.28,119.802,316.309
      L119.802,316.309z M155.946,312.078c0.695-0.419,1.349-0.813,2.233-1.347c-0.029,0.806,0.16,1.486-0.101,1.848
      C157.259,313.721,156.595,313.148,155.946,312.078L155.946,312.078z M118.816,308.011c1.526,0.546,1.644,1.203,0.514,4.476
      C119.11,310.564,118.968,309.311,118.816,308.011L118.816,308.011z M104.765,303.192c-1.213-0.752-2.427-1.502-4.024-2.495
      c2.889-0.549,2.889-0.549,4.492,1.799C105.076,302.729,104.921,302.959,104.765,303.192L104.765,303.192z M109.373,304.912
      c-1.303,0.614-2.186,1.029-3.247,1.53c0.406,0.822,0.698,1.414,0.987,2.004c0.998-0.217,1.866-0.403,2.93-0.632
      C109.848,306.965,109.674,306.215,109.373,304.912L109.373,304.912z M110.843,297.798c-1.032-1.084-2.068-2.165-3.199-3.348
      C109.99,293.418,110.52,293.885,110.843,297.798L110.843,297.798z M90.826,291.371c0.914-0.03,1.825-0.059,3.619-0.12
      c-1.221-0.784-1.709-1.099-2.39-1.536c0.505-0.541,1.019-1.084,1.689-1.798c0.72,0.93,1.606,1.637,1.835,2.515
      c0.178,0.683-0.227,1.896-0.788,2.32C93.069,294.054,92.104,292.159,90.826,291.371L90.826,291.371z M151.294,308.236
      c-0.111,1.075-0.221,2.138-0.338,3.243c-1.006,0.118-2.2,0.258-3.868,0.458c0.392-1.734,0.73-3.237,1.074-4.771
      C149.448,307.607,150.443,307.947,151.294,308.236L151.294,308.236z M36.067,365.636c1.118-0.124,2.208-0.288,3.266-0.499
      l-0.247-0.509C37.199,364.76,36.568,364.805,36.067,365.636L36.067,365.636z M43.092,364.172c0.988-0.313,1.942-0.668,2.86-1.064
      l-2.69-0.837L43.092,364.172L43.092,364.172z M54.34,357.281l0.154-0.169c-1.993-2.266-2.614-2.421-3.793-1.435L54.34,357.281
      L54.34,357.281z M59.934,343.458c0.027-0.472,0.038-0.942,0.038-1.424l-0.013-0.84c-1.357,1.312-1.338,2.029-0.559,3.524
      L59.934,343.458L59.934,343.458z M40.785,345.924c-0.186,0.198-0.392,0.386-0.627,0.57c0.706,0.284,1.388,0.717,2.093,1.255
      C41.927,346.885,41.395,346.336,40.785,345.924L40.785,345.924z M36.104,348.192c-1.225,0.25-2.676,0.39-4.39,0.395l-0.142,0.6
      C33.249,347.693,35.251,350.372,36.104,348.192L36.104,348.192z M72.331,343.763l-0.173,0.506l0.229,0.072
      c0.064-0.15,0.128-0.303,0.194-0.451L72.331,343.763L72.331,343.763z M70.922,347.908l-0.571,1.676l1.299,0.08L70.922,347.908
      L70.922,347.908z M66.217,361.739l-0.116,0.338c0.155,0.002,0.302,0.006,0.436,0.021L66.217,361.739L66.217,361.739z
      M54.582,335.998c0.951,0.257,1.604,0.437,2.641,0.718C55.411,337.182,55.411,337.182,54.582,335.998L54.582,335.998z
      M76.766,345.475c-0.445,0.271-0.883,0.55-1.34,0.792c-0.017,0.011-0.227-0.348-0.348-0.534c0.456-0.264,0.909-0.528,1.363-0.796
      C76.549,345.116,76.657,345.295,76.766,345.475L76.766,345.475z M54.887,333.202c0.575,0.323,1.15,0.646,1.726,0.969
      c-0.076,0.167-0.15,0.332-0.225,0.497c-0.631-0.253-1.26-0.505-1.889-0.756C54.627,333.674,54.754,333.437,54.887,333.202
      L54.887,333.202z M32.273,332.575c-0.507,0.258-1.017,0.516-1.526,0.771c-0.081-0.144-0.163-0.29-0.241-0.435
      c0.49-0.295,0.984-0.586,1.474-0.88C32.079,332.212,32.177,332.394,32.273,332.575L32.273,332.575z M47.853,344.86
      c-0.428,0.564-0.86,1.125-1.289,1.688c-0.049-0.042-0.097-0.083-0.146-0.124c0.363-0.573,0.722-1.146,1.08-1.719
      C47.618,344.757,47.734,344.811,47.853,344.86L47.853,344.86z M21.667,364.247c0.375-0.335,0.75-0.668,1.128-1.004
      c0.173,0.229,0.348,0.456,0.521,0.686c-0.433,0.281-0.866,0.562-1.299,0.841C21.901,364.595,21.782,364.422,21.667,364.247
      L21.667,364.247z M43.571,351.376c0.458-0.484,0.917-0.97,1.433-1.514C44.87,351.248,44.87,351.248,43.571,351.376L43.571,351.376z
      M40.674,357.657c-0.328-0.582-0.658-1.162-1.159-2.046c0.791-0.088,1.334-0.15,2.528-0.283c-0.707,1.124-1.094,1.741-1.493,2.357
      l0.012-0.002l-0.021,0.006c0.444,0.41,0.887,0.82,1.33,1.235c1.646-1.113,2.066-0.043,2.792,1.93
      c-1.321-0.983-2.068-1.537-2.813-2.089c-0.13,0.75-0.261,1.501-0.439,2.52C40.098,359.166,40.098,359.166,40.674,357.657
      L40.674,357.657z M42.402,344.773c0.868-0.309,1.501-0.532,2.396-0.85C44.045,345.625,44.045,345.625,42.402,344.773
      L42.402,344.773z M47.463,336.328c0.629,0.321,1.262,0.639,1.893,0.956c-0.066,0.169-0.128,0.338-0.192,0.505
      c-0.814-0.158-1.625-0.319-2.857-0.556c0.734-0.456,1.093-0.674,1.452-0.895c-0.374-0.726-0.742-1.45-1.349-2.631
      C48.418,334.662,48.418,334.662,47.463,336.328L47.463,336.328z M29.958,360.766c1.017-0.188,2.033-0.375,3.413-0.629
      c-0.162,0.839-0.274,1.408-0.466,2.396c-1.177-0.741-2.042-1.285-2.918-1.817c-0.008,0.008-0.018,0.029-0.024,0.042l0.012-0.029
      c0.134-2.384-1.728-1.079-2.984-1.567c-0.072-0.823-0.154-1.786-0.277-3.231c1.573,0.843,2.73,1.458,3.973,2.124
      C30.41,359.079,30.185,359.922,29.958,360.766L29.958,360.766z M20.886,352.92c0.313-2.6,2.876-1.866,4.148-3.188
      c0.132,0.205,0.262,0.41,0.392,0.614C23.913,351.202,22.399,352.063,20.886,352.92L20.886,352.92z M37.859,357.411
      c-3.539-1.695-4.213-1.472-4.504,1.074C34.947,358.104,36.404,357.757,37.859,357.411z"></path>
      <path fill-rule="evenodd" clip-rule="evenodd" fill="#0D0F0F" d="M26.04,422.02v-3.004h-9.926v-17.611h-3.18v20.615H26.04
       L26.04,422.02z M39.76,401.2c-5.802,0-10.487,4.709-10.487,10.512c0,5.831,4.685,10.514,10.487,10.514
       c5.798,0,10.512-4.683,10.512-10.514C50.272,405.91,45.559,401.2,39.76,401.2L39.76,401.2z M39.76,404.203
       c4.09,0,7.331,3.15,7.331,7.509c0,4.388-3.24,7.507-7.331,7.507c-4.095,0-7.306-3.12-7.306-7.507
       C32.455,407.353,35.665,404.203,39.76,404.203L39.76,404.203z M59.806,410.12v-5.711h10.223v-3.004H56.626v20.615h3.18v-8.895
       h9.516v-3.004H59.806L59.806,410.12z M83.364,404.409h6.036v-3.004H74.176v3.004h6.008v17.611h3.18V404.409L83.364,404.409z
       M113.988,423.786v-22.382h-2.06v22.382H113.988L113.988,423.786z M144.028,419.015v-14.606h2.446v-3.004h-8.071v3.004h2.444
       v14.606h-2.444v3.004h8.071v-3.004H144.028L144.028,419.015z M169.792,422.02v-20.615h-3.18v14.549l-10.897-14.549h-1.856v20.615
       h3.182v-14.549l10.896,14.549H169.792L169.792,422.02z M176.118,401.404v20.615h6.833c5.802,0,10.483-4.241,10.483-10.308
       c0-6.068-4.681-10.308-10.483-10.308H176.118L176.118,401.404z M179.299,419.015v-14.606h3.652c4.064,0,7.303,2.68,7.303,7.303
       c0,4.654-3.239,7.303-7.303,7.303H179.299L179.299,419.015z M216.517,401.404h-3.181v11.779c0,4.183-2.266,6.036-5.21,6.036
       c-2.916,0-5.184-1.853-5.184-6.036v-11.779h-3.181v11.869c0,5.773,3.74,8.953,8.365,8.953c4.652,0,8.392-3.179,8.392-8.953V401.404
       L216.517,401.404z M230.148,401.2c-4.037,0.029-7.365,2.324-7.365,6.033c0,3.359,2.651,4.921,6.687,5.392l1.942,0.233
       c2.534,0.325,4.183,1.092,4.183,3.153c0,2.002-1.942,3.208-4.623,3.239h-0.147c-3.297,0-5.538-1.559-6.479-3.271l-2.062,1.916
       c1.441,2.417,4.419,4.33,8.541,4.33h0.147c4.358-0.028,7.804-2.386,7.804-6.214c0-4.007-2.796-5.596-6.951-6.097l-1.942-0.235
       c-2.414-0.323-3.915-0.942-3.915-2.532c0-2.122,2.383-2.973,4.181-2.973h0.264c1.828,0,4.151,0.911,5.625,2.356l2.062-1.917
       c-1.916-2.06-4.771-3.413-7.688-3.413H230.148L230.148,401.2z M252.141,404.409h6.036v-3.004h-15.225v3.004h6.01v17.611h3.179
       V404.409L252.141,404.409z M263.709,401.404v20.615h3.179v-5.419h3.239c2.12,0.06,2.858,0.5,4.505,3.063l1.534,2.356h3.563
       l-1.913-2.944c-1.271-1.975-2.21-3.004-3.241-3.503c2.973-1.033,4.858-3.301,4.858-6.569c0-4.477-3.386-7.598-8.891-7.598H263.709
       L263.709,401.404z M266.888,404.409h3.918c3.093,0,5.625,1.47,5.625,4.594c0,3.239-2.532,4.623-5.625,4.623h-3.918V404.409
       L266.888,404.409z M291.153,419.015v-14.606h2.445v-3.004h-8.07v3.004h2.441v14.606h-2.441v3.004h8.07v-3.004H291.153
       L291.153,419.015z M304.754,417.396h8.041l1.852,4.623h3.505l-8.42-20.615h-1.856l-8.511,20.615h3.505L304.754,417.396
       L304.754,417.396z M308.786,407.207l2.916,7.186h-5.831L308.786,407.207L308.786,407.207z M336.73,422.02v-3.004h-9.923v-17.611
       h-3.185v20.615H336.73L336.73,422.02z M361.287,423.786v-22.382h-2.057v22.382H361.287L361.287,423.786z M391.947,401.2
       c-4.036,0.029-7.364,2.324-7.364,6.033c0,3.359,2.652,4.921,6.688,5.392l1.942,0.233c2.532,0.325,4.183,1.092,4.183,3.153
       c0,2.002-1.942,3.208-4.624,3.239h-0.148c-3.298,0-5.538-1.559-6.479-3.271l-2.062,1.916c1.443,2.417,4.417,4.33,8.54,4.33h0.148
       c4.356-0.028,7.803-2.386,7.803-6.214c0-4.007-2.796-5.596-6.948-6.097l-1.942-0.235c-2.416-0.323-3.917-0.942-3.917-2.532
       c0-2.122,2.383-2.973,4.18-2.973h0.265c1.827,0,4.153,0.911,5.626,2.356l2.062-1.917c-1.918-2.06-4.771-3.413-7.688-3.413H391.947
       L391.947,401.2z M413.94,404.409h6.038v-3.004h-15.227v3.004h6.01v17.611h3.179V404.409L413.94,404.409z M428.957,410.12v-5.711
       h10.217v-3.004h-13.401v20.615h13.401v-3.004h-10.217v-5.891h9.508v-3.004H428.957L428.957,410.12z M448.709,417.396h8.042
       l1.854,4.623h3.507l-8.426-20.615h-1.854l-8.509,20.615h3.501L448.709,417.396L448.709,417.396z M452.746,407.207l2.912,7.186
       h-5.832L452.746,407.207L452.746,407.207z M487.846,422.02v-20.615h-1.829l-8.274,10.456l-8.274-10.456h-1.854v20.615h3.179
       v-14.667l6.95,8.718l6.923-8.718v14.667H487.846L487.846,422.02z M495.523,401.404v20.615h3.184v-5.124h3.472
       c5.51,0,9.072-3.093,9.072-7.747c0-4.623-3.563-7.745-9.072-7.745H495.523L495.523,401.404z M498.707,413.92v-9.512h3.682
       c3.093,0,5.86,1.47,5.86,4.74c0,3.388-2.768,4.771-5.86,4.771H498.707L498.707,413.92z M534.102,401.404h-3.183v11.779
       c0,4.183-2.265,6.036-5.209,6.036c-2.919,0-5.188-1.853-5.188-6.036v-11.779h-3.179v11.869c0,5.773,3.74,8.953,8.367,8.953
       c4.652,0,8.392-3.179,8.392-8.953V401.404L534.102,401.404z M557.125,422.02v-20.615h-3.179v14.549l-10.9-14.549h-1.854v20.615
       h3.184v-14.549l10.896,14.549H557.125L557.125,422.02z M577.942,422.02h3.592l-4.89-7.599c-1.238-1.944-1.914-2.651-2.797-2.946
       c0.733-0.381,1.385-1.06,2.59-2.796l4.686-7.274h-3.626l-4.003,6.272c-1.147,1.736-1.65,2.357-3.416,2.357h-2.387v-8.63h-3.181
       v20.615h3.181v-8.924h2.622c1.769,0,2.268,0.59,3.385,2.355L577.942,422.02z"></path>
     </g>
   </svg>